<svg width="565.84" height="64.13"
  xmlns="http://www.w3.org/2000/svg">
  <path d="m259.18927,63.81128l-10.9256,0l0,-20.264l-78.0942,0l0,20.264l-11.1613,0l0,-47.7867c0,-5.3003 1.0749,-9.2925 3.2235,-11.9727c2.1688,-2.705 5.4042,-4.0593 9.7041,-4.0593l74.6889,0c4.3152,0 7.5611,1.3668 9.7363,4.0977c2.1556,2.7062 3.2339,6.7376 3.2339,12.0895l0,47.6315l-0.4056,0zm-147.5607,-63.1522l-49.7024,46.0128l0,17.3973l-11.161,0l0,-17.3961c-16.8314,-15.5712 -33.655,-31.1518 -50.4781,-46.732l18.3318,0l0.1165,0.108l37.6103,34.8177c12.5746,-11.6431 25.1459,-23.2905 37.7274,-34.9257l18.3311,0l-0.7756,0.718zm58.5409,29.4709l78.0942,0l0,-12.0923c0,-1.5598 -0.3158,-2.7184 -0.9449,-3.473c-0.6125,-0.734 -1.5495,-1.1024 -2.8092,-1.1024l-70.5859,0c-1.2579,0 -2.1946,0.3797 -2.8062,1.1358c-0.6313,0.7805 -0.948,1.9794 -0.948,3.5941l0,11.9378zm242.3265,33.7846l-12.914,0l-12.5499,-20.2121l-63.5987,0l0,20.2121l-11.3306,0c0.0476,-21.2727 0.0975,-42.5463 0.1291,-63.819l87.7851,0c4.2417,0 7.4329,1.2875 9.5726,3.8623c2.1225,2.5541 3.1842,6.3593 3.1842,11.4133l0,12.9012c0,5.1061 -1.0835,8.9503 -3.2498,11.5306c-2.0569,2.4505 -5.0673,3.7459 -9.0296,3.8864l12.7427,20.2252l-0.7411,0zm-14.9777,-50.4523l-74.0849,0l0,16.9084l74.4256,0c1.2413,0 2.1691,-0.3918 2.7813,-1.1767c0.6353,-0.8142 0.9609,-2.063 0.974,-3.7455l0.0859,-7.3128c0.006,-1.585 -0.3351,-2.7649 -1.0262,-3.5341c-0.6818,-0.7587 -1.7328,-1.1393 -3.1557,-1.1393zm168.6049,34.5573c0,5.2591 -1.093,9.2179 -3.2762,11.8751c-2.2016,2.6796 -5.4864,4.0199 -9.85,4.0199l-87.5485,0l0.1362,-13.3314l85.5807,0c1.2533,0 2.1912,-0.3428 2.8111,-1.025c0.6307,-0.6947 0.9606,-1.7612 0.9869,-3.1964l0.0432,-3.0774c0.02,-1.5551 -0.2915,-2.7108 -0.9366,-3.4633c-0.6322,-0.7374 -1.6135,-1.1073 -2.9469,-1.1073l-72.659,0c-4.3214,0 -7.5733,-1.2236 -9.755,-3.6725c-2.1716,-2.4393 -3.2578,-6.0708 -3.2578,-10.8975l0,-8.3771c0,-5.1979 1.0608,-9.1129 3.1821,-11.7423c2.14,-2.6525 5.3321,-3.9803 9.5747,-3.9803l87.9151,-0.1021l0,13.4679l-85.7138,0c-1.2448,0 -2.171,0.3715 -2.7759,1.1121c-0.6236,0.7633 -0.9363,1.9359 -0.9363,3.5157l0,2.5285c0,3.148 1.2135,4.7299 3.6404,4.7299l72.6594,0c4.3599,0 7.6432,1.2913 9.8451,3.8733c2.1863,2.5635 3.2811,6.3817 3.2811,11.4538l0,7.3964z" id="svg_2" fill="#1a1a1a" fill-rule="evenodd"/>
</svg>