<?xml version="1.0" encoding="UTF-8" standalone="no"?>
<svg xmlns:dc="http://purl.org/dc/elements/1.1/"
  xmlns:cc="http://creativecommons.org/ns#"
  xmlns:rdf="http://www.w3.org/1999/02/22-rdf-syntax-ns#"
  xmlns:svg="http://www.w3.org/2000/svg"
  xmlns="http://www.w3.org/2000/svg"
  xmlns:sodipodi="http://sodipodi.sourceforge.net/DTD/sodipodi-0.dtd"
  xmlns:inkscape="http://www.inkscape.org/namespaces/inkscape" version="1.1" width="841.88977" height="595.27557" id="svg4" viewBox="0 0 841.88977 595.27557" sodipodi:docname="YARS_logo.cdr">
  <metadata id="metadata10">
    <rdf:RDF>
      <cc:Work rdf:about="">
        <dc:format>image/svg+xml</dc:format>
        <dc:type rdf:resource="http://purl.org/dc/dcmitype/StillImage" />
      </cc:Work>
    </rdf:RDF>
  </metadata>
  <defs id="defs8" />
  <sodipodi:namedview pagecolor="#ffffff" bordercolor="#666666" borderopacity="1" objecttolerance="10" gridtolerance="10" guidetolerance="10" inkscape:pageopacity="0" inkscape:pageshadow="2" inkscape:window-width="640" inkscape:window-height="480" id="namedview6" />
  <path d="m 396.914,329.6461 h -10.9256 v -20.264 h -78.0942 v 20.264 h -11.1613 v -47.7867 c 0,-5.3003 1.0749,-9.2925 3.2235,-11.9727 2.1688,-2.705 5.4042,-4.0593 9.7041,-4.0593 h 74.6889 c 4.3152,0 7.5611,1.3668 9.7363,4.0977 2.1556,2.7062 3.2339,6.7376 3.2339,12.0895 v 47.6315 z m -147.5607,-63.1522 -49.7024,46.0128 v 17.3973 h -11.161 v -17.3961 c -16.8314,-15.5712 -33.655,-31.1518 -50.4781,-46.732 h 18.3318 l 0.1165,0.108 37.6103,34.8177 c 12.5746,-11.6431 25.1459,-23.2905 37.7274,-34.9257 h 18.3311 z m 58.5409,29.4709 h 78.0942 v -12.0923 c 0,-1.5598 -0.3158,-2.7184 -0.9449,-3.473 -0.6125,-0.734 -1.5495,-1.1024 -2.8092,-1.1024 h -70.5859 c -1.2579,0 -2.1946,0.3797 -2.8062,1.1358 -0.6313,0.7805 -0.948,1.9794 -0.948,3.5941 z m 242.3265,33.7846 h -12.914 l -12.5499,-20.2121 h -63.5987 v 20.2121 h -11.3306 c 0.0476,-21.2727 0.0975,-42.5463 0.1291,-63.819 h 87.7851 c 4.2417,0 7.4329,1.2875 9.5726,3.8623 2.1225,2.5541 3.1842,6.3593 3.1842,11.4133 v 12.9012 c 0,5.1061 -1.0835,8.9503 -3.2498,11.5306 -2.0569,2.4505 -5.0673,3.7459 -9.0296,3.8864 l 12.7427,20.2252 z M 535.243,279.2971 h -74.0849 v 16.9084 h 74.4256 c 1.2413,0 2.1691,-0.3918 2.7813,-1.1767 0.6353,-0.8142 0.9609,-2.063 0.974,-3.7455 l 0.0859,-7.3128 c 0.006,-1.585 -0.3351,-2.7649 -1.0262,-3.5341 -0.6818,-0.7587 -1.7328,-1.1393 -3.1557,-1.1393 z m 168.6049,34.5573 c 0,5.2591 -1.093,9.2179 -3.2762,11.8751 -2.2016,2.6796 -5.4864,4.0199 -9.85,4.0199 h -87.5485 l 0.1362,-13.3314 h 85.5807 c 1.2533,0 2.1912,-0.3428 2.8111,-1.025 0.6307,-0.6947 0.9606,-1.7612 0.9869,-3.1964 l 0.0432,-3.0774 c 0.02,-1.5551 -0.2915,-2.7108 -0.9366,-3.4633 -0.6322,-0.7374 -1.6135,-1.1073 -2.9469,-1.1073 h -72.659 c -4.3214,0 -7.5733,-1.2236 -9.755,-3.6725 -2.1716,-2.4393 -3.2578,-6.0708 -3.2578,-10.8975 v -8.3771 c 0,-5.1979 1.0608,-9.1129 3.1821,-11.7423 2.14,-2.6525 5.3321,-3.9803 9.5747,-3.9803 l 87.9151,-0.1021 v 13.4679 h -85.7138 c -1.2448,0 -2.171,0.3715 -2.7759,1.1121 -0.6236,0.7633 -0.9363,1.9359 -0.9363,3.5157 v 2.5285 c 0,3.148 1.2135,4.7299 3.6404,4.7299 h 72.6594 c 4.3599,0 7.6432,1.2913 9.8451,3.8733 2.1863,2.5635 3.2811,6.3817 3.2811,11.4538 z" style="fill:#1a1a1a;fill-rule:evenodd" id="path2" />
</svg>
