<?xml version="1.0" encoding="UTF-8"?> <svg xmlns="http://www.w3.org/2000/svg" width="80" height="122" viewBox="0 0 80 122" fill="none"><circle cx="38.6109" cy="57.9163" r="33.095" fill="white"></circle><path fill-rule="evenodd" clip-rule="evenodd" d="M21.4506 91.6259C8.62321 85.3633 0 72.6472 0 57.7769C0 45.6761 5.70261 35.1092 14.6885 28.1783C21.3704 23.1221 35.5981 9.99875 35.5981 0C35.5981 16.248 22.2344 32.0415 16.647 38.0066C11.7508 43.1764 8.75552 50.1074 8.75552 57.7769C8.75552 74.3089 22.8104 87.4891 39.6878 87.4891C56.5653 87.4891 70.4474 74.2521 70.4474 57.7769C70.4474 50.1074 67.5097 43.29 62.6135 38.0066C61.9619 37.3157 61.1886 36.5155 60.3326 35.6298C54.1509 29.2337 43.6624 18.3815 43.6624 12.044C43.6624 15.3202 50.3442 19.3287 56.6199 23.0936C59.5941 24.8778 62.477 26.6073 64.5144 28.1783C73.5003 35.0524 79.2605 45.6761 79.2605 57.7769C79.3039 73.7451 69.371 87.2294 55.0323 92.9058L38.6109 121.348L21.4506 91.6259Z" fill="#111111"></path></svg> 