<?xml version="1.0" encoding="UTF-8"?> <svg xmlns="http://www.w3.org/2000/svg" width="99" height="100" viewBox="0 0 99 100" fill="none"><path d="M49.5 94.3701C61.79 94.3701 72.92 89.3801 80.97 81.3301C89.03 73.2801 94.01 62.1501 94.01 49.8501C94.01 37.5601 89.03 26.4301 80.97 18.3801C72.92 10.3201 61.79 5.3401 49.5 5.3401C37.2 5.3401 26.07 10.3201 18.02 18.3801C9.96 26.4301 4.98 37.5601 4.98 49.8501C4.98 62.1501 9.97 73.2801 18.02 81.3301C26.07 89.3901 37.2 94.3701 49.5 94.3701ZM84.5 84.8501C75.54 93.8101 63.16 99.3501 49.5 99.3501C35.83 99.3501 23.45 93.8101 14.5 84.8501C5.54 75.9001 0 63.5201 0 49.8501C0 36.1901 5.54 23.8101 14.5 14.8501C23.45 5.8901 35.83 0.350098 49.5 0.350098C63.16 0.350098 75.54 5.8901 84.5 14.8501C93.46 23.8101 99 36.1901 99 49.8501C99 63.5201 93.46 75.9001 84.5 84.8501Z" fill="#ADAFBA"></path><path fill-rule="evenodd" clip-rule="evenodd" d="M57.46 57.2502C56.69 56.7402 54.91 55.0002 53.96 54.2402C53.73 54.0602 53.62 53.9002 53.39 53.6902C53.14 53.4502 53.03 53.4302 52.77 53.1902L48.15 49.0702C43.56 50.1402 45.82 50.7802 41.91 48.6902C41.61 48.5402 41.57 48.4802 41.27 48.3202C41 48.1802 40.86 48.1202 40.62 47.9702C40.29 47.7702 39.63 47.3502 39.29 47.2702L44.07 40.8302C44.63 40.0802 45.18 39.4002 45.68 38.6402C45.96 38.8502 46.7 40.0202 46.94 40.4102C47.36 41.0902 47.76 41.6702 48.16 42.3402C48.34 42.6402 48.52 42.9002 48.73 43.2102C48.97 43.5602 49.1 43.8202 49.34 44.1802L54.79 52.6302C55.19 53.2802 55.14 53.3302 55.55 53.4402C55.67 53.0102 58.75 48.3202 59.32 47.4502C59.77 46.7702 60.16 46.1302 60.6 45.4802C61.15 45.8802 66.08 54.1102 66.54 54.4502C66.36 54.7002 66.64 54.5202 65.77 54.4402C65.4 54.4002 65.44 54.3902 65.07 54.3502L62.27 53.9902C61.69 54.0002 61.92 54.0302 61.18 54.5802L57.46 57.2502ZM20.79 66.6702C20.79 69.0402 22.52 70.6002 24.49 70.6002H74.5C76.43 70.6002 78.2 68.9502 78.2 67.0102C78.2 65.7002 78.01 65.3302 77.24 64.1602L73.36 58.1702C72.5 56.8102 71.68 55.5702 70.82 54.2002L65.68 46.2302C65.46 45.8602 65.29 45.6202 65.06 45.2802C64.82 44.9202 64.64 44.5902 64.41 44.2502C63.93 43.5202 63.6 42.9502 62.92 42.3702C61.64 41.2802 59.44 41.3402 58.14 42.5702C58.12 42.5902 58.1 42.6102 58.08 42.6302L55.44 46.4902C55.17 46.2902 54.67 45.4702 54.45 45.1202L51.56 40.6102C50.52 39.0602 48.84 35.8002 47.29 35.1302C46.01 34.5702 44.67 34.7302 43.62 35.4502C42.86 35.9702 41.95 37.3402 41.36 38.1302C39.92 40.0502 38.57 41.8502 37.13 43.7702L22.42 63.3702C21.66 64.4002 20.79 65.2402 20.79 66.6702Z" fill="#ADAFBA"></path><path fill-rule="evenodd" clip-rule="evenodd" d="M51.74 34.15C52.16 34.78 55.33 39.57 55.44 39.99C56.19 39.48 56.61 39.01 57.54 38.61C60.18 37.45 63.25 37.84 65.46 39.72C65.73 39.96 65.64 39.83 65.87 40.1C66.01 40.26 66.06 40.34 66.23 40.52C67.08 41.41 67.7 42.89 68.22 43.24C69.68 40.48 69.95 37.33 68.56 34.49C65.7 28.66 58.31 27.51 54.07 31.32C52.56 32.68 52.93 32.37 51.74 34.15Z" fill="#ADAFBA"></path></svg> 