<?xml version="1.0" encoding="UTF-8"?> <svg xmlns="http://www.w3.org/2000/svg" width="99" height="99" viewBox="0 0 99 99" fill="none"><path d="M49.5 94.02C61.79 94.02 72.92 89.03 80.97 80.98C89.03 72.93 94.01 61.8 94.01 49.5C94.01 37.21 89.03 26.08 80.97 18.03C72.92 9.97 61.79 4.99 49.5 4.99C37.2 4.99 26.07 9.97 18.02 18.03C9.97 26.08 4.98 37.21 4.98 49.5C4.98 61.8 9.96 72.93 18.02 80.98C26.07 89.04 37.2 94.02 49.5 94.02ZM84.5 84.5C75.54 93.46 63.16 99 49.5 99C35.83 99 23.45 93.46 14.5 84.5C5.54 75.55 0 63.17 0 49.5C0 35.84 5.54 23.46 14.5 14.5C23.45 5.54 35.83 0 49.5 0C63.16 0 75.54 5.54 84.5 14.5C93.46 23.46 99 35.84 99 49.5C99 63.17 93.46 75.55 84.5 84.5Z" fill="#ADAFBA"></path><path d="M23.68 25.3601H31.31C32.02 25.3601 32.65 25.6401 33.11 26.1001L38.39 31.4101L40.43 29.4001C41.47 28.4101 42.74 27.9001 44.01 27.9001H59.26C60.53 27.9001 61.8 28.4101 62.84 29.4001L65.38 31.9401C66.38 32.9801 66.88 34.2501 66.88 35.5301V68.5601C66.88 71.3701 64.61 73.6401 61.8 73.6401L36.39 73.6501C33.58 73.6401 31.31 71.3701 31.31 68.5601V53.3101V50.7701V40.6101C31.31 39.3401 31.81 38.0701 32.8 37.0201L34.81 34.9901L30.26 30.4401H23.68V25.3601ZM44.01 32.9801V38.0701H59.26V32.9801H44.01ZM45.05 48.2301L39.97 43.1501H36.39V46.7301L41.47 51.8201V59.9001L36.39 64.9801V68.5601H39.97L45.05 63.4801H53.14L58.22 68.5601H61.8V64.9801L56.72 59.9001V51.8201L61.8 46.7301V43.1501H58.22L53.14 48.2301H45.05ZM46.55 53.3101H51.64V58.4001H46.55V53.3101Z" fill="#ADAFBA"></path></svg> 