<?xml version="1.0" encoding="UTF-8"?> <svg xmlns="http://www.w3.org/2000/svg" width="99" height="100" viewBox="0 0 99 100" fill="none"><path d="M49.5 94.3701C61.79 94.3701 72.92 89.3901 80.97 81.3301C89.03 73.2801 94.01 62.1501 94.01 49.8501C94.01 37.5601 89.03 26.4301 80.97 18.3801C72.92 10.3201 61.79 5.3401 49.5 5.3401C37.2 5.3401 26.07 10.3201 18.02 18.3801C9.96 26.4301 4.98 37.5601 4.98 49.8501C4.98 62.1501 9.97 73.2801 18.02 81.3301C26.07 89.3801 37.2 94.3701 49.5 94.3701ZM84.5 84.8501C75.54 93.8101 63.16 99.3501 49.5 99.3501C35.83 99.3501 23.45 93.8101 14.5 84.8501C5.54 75.9001 0 63.5201 0 49.8501C0 36.1901 5.54 23.8101 14.5 14.8501C23.45 5.8901 35.83 0.350098 49.5 0.350098C63.16 0.350098 75.54 5.8901 84.5 14.8501C93.46 23.8101 99 36.1901 99 49.8501C99 63.5201 93.46 75.9001 84.5 84.8501Z" fill="#ADAFBA"></path><path fill-rule="evenodd" clip-rule="evenodd" d="M47.28 29.5301C46.37 29.0401 45.4499 28.4501 44.5399 27.9401C44.0299 27.6501 43.62 27.5801 43.01 27.5801C42.34 27.5801 41.94 27.9201 41.59 28.2701C40.6 29.2501 40.81 30.9701 41.94 31.7301C42.58 32.1701 46.63 34.4801 47.28 34.8201V45.9601C47.07 45.9101 46.87 45.7701 46.67 45.6501C46.46 45.5301 46.29 45.4201 46.09 45.3101L42.49 43.2301C42.09 42.9901 41.72 42.8001 41.32 42.5701L39.55 41.5301C39.19 41.3201 38.02 40.5801 37.71 40.5001C37.71 38.7301 37.71 36.9701 37.71 35.2001C37.71 34.0601 37.78 33.6901 37.28 32.9801C36.18 31.4501 33.54 31.9201 33.19 33.8701C33.09 34.4201 33.17 37.0901 33.17 37.8501L30.02 36.0301C29.42 35.6701 29.09 35.5801 28.36 35.5801C27.47 35.5801 26.75 36.1901 26.46 36.9201C26.12 37.7401 26.2399 38.6701 26.8099 39.3501C27.3699 40.0201 30.37 41.3901 30.63 41.7401C30.31 42.1701 27.69 43.1201 27.13 44.1401C26.85 44.6601 26.74 45.2401 26.87 45.8801C26.98 46.3901 27.35 46.9201 27.77 47.2001C28.26 47.5101 28.72 47.5801 29.33 47.5801C30 47.5801 30.83 46.9801 31.38 46.6601C31.71 46.4701 34.8699 44.5601 35.2199 44.4401C35.4199 44.3801 35.97 44.7801 36.17 44.9001L38.0599 45.9901C39.65 46.9301 41.2799 47.8101 42.8599 48.7601C43.1999 48.9701 44.5099 49.7801 44.7899 49.8501C44.6099 50.1201 43.71 50.5401 43.39 50.7201C41.93 51.5601 40.49 52.4601 39.01 53.2601C38.76 53.3901 38.5499 53.5301 38.2899 53.6701L35.75 55.1401C35.28 55.4401 35.13 55.1601 34.64 54.8701L31.7299 53.1901C31.2199 52.9001 30.75 52.6001 30.25 52.3401C27.48 50.8801 25.47 54.7701 27.91 56.3001L30.49 57.7801C30.56 57.8201 30.59 57.8301 30.66 57.8801C30.74 57.9301 30.79 57.9701 30.84 58.0201C30.54 58.0901 27.12 60.0801 26.86 60.3501C26.44 60.7701 26.23 61.2901 26.2 61.8201V62.0901C26.26 63.2201 27.15 64.2901 28.52 64.2901C29.4 64.2901 30.23 63.6701 30.94 63.2401C31.31 63.0201 31.67 62.8101 32.03 62.6101C32.42 62.4001 32.78 62.1701 33.17 61.9601C33.17 62.7901 33.08 65.3101 33.21 65.8701C33.76 68.1801 37.04 68.1001 37.65 65.9001C37.75 65.5501 37.71 65.0501 37.71 64.6101C37.71 62.8501 37.71 61.0801 37.71 59.3101C38.51 58.8901 39.3 58.4101 40.09 57.9601C41.88 56.9301 43.64 55.8401 45.46 54.8501L47.28 53.8001V64.8301C46.99 64.9101 46.67 65.1701 46.41 65.3101C46.1 65.4901 45.8299 65.6401 45.5199 65.8301C44.9099 66.1901 44.35 66.4901 43.74 66.8501C43.44 67.0301 43.1799 67.1901 42.8799 67.3501C41.7899 67.9401 40.96 68.4601 40.96 69.8601C40.96 71.0001 41.95 72.0701 43.0599 72.0701C44.15 72.0701 44.55 71.7201 45.43 71.1901L47.28 70.1301C47.28 71.4801 47.25 72.8901 47.28 74.2401C47.3 75.2701 48.27 76.3301 49.32 76.3401H49.39C50.43 76.3301 51.15 76.0301 51.6099 75.1001C51.7699 74.7801 51.78 74.7001 51.84 74.2501C51.97 73.2301 51.8799 71.3101 51.8799 70.1301C52.6399 70.6401 53.8099 71.2701 54.6099 71.7101C55.0399 71.9501 55.43 72.0701 55.98 72.0701C56.86 72.0701 57.67 71.5301 57.99 70.7301C58.3899 69.7501 58.14 68.5501 57.25 67.9401C56.63 67.5101 52.6799 65.2601 51.8799 64.8301V53.9601L60.17 58.7601C60.39 58.8801 60.55 58.9801 60.74 59.1001C60.95 59.2101 61.15 59.3701 61.39 59.4201C61.39 61.1501 61.39 62.8801 61.39 64.6101C61.39 65.5801 61.44 66.1701 61.89 66.7101C63.09 68.1101 65.35 67.7601 65.9 65.9301C66.1 65.2601 65.99 63.0401 65.99 62.1301C66.78 62.5501 69.53 64.3401 70.2 64.3401H70.74C71.78 64.3401 72.79 63.3001 72.7999 62.2501V62.1901C72.79 61.4801 72.6199 60.9401 72.16 60.4901C71.95 60.2701 71.88 60.1901 71.59 60.0401C71.34 59.9001 71.12 59.7701 70.9 59.6401C70.64 59.4801 68.54 58.2001 68.2 58.1301V58.0201C68.5 57.9501 70.32 56.8301 70.6199 56.6501C71.6199 56.0401 72.31 55.5701 72.31 54.2301C72.31 53.2201 71.68 52.4901 70.81 52.1701C69.45 51.6701 68.0799 52.8401 66.9799 53.4401C66.5799 53.6601 66.24 53.8601 65.85 54.0901C65.1 54.5301 64.27 54.9401 63.5499 55.4201C63.18 55.1001 58.3899 52.4401 57.67 52.0101C57.27 51.7601 56.8699 51.5501 56.4699 51.3101C56.09 51.0801 55.71 50.8801 55.3 50.6401C54.98 50.4501 54.43 50.0501 54.09 49.9601C54.15 49.7401 54.33 49.7401 54.51 49.6301L63.49 44.4301C63.6 44.3601 63.6399 44.3301 63.7899 44.3701C64.0899 44.4601 67.15 46.3301 67.7 46.6301C68.81 47.2401 69.77 48.0201 71.11 47.3501C71.28 47.2601 71.57 47.0401 71.6899 46.9101C72.6499 45.8801 72.4799 44.1901 71.31 43.4001C71 43.1901 68.53 41.7501 68.31 41.6901C69.01 41.0801 71.16 40.2101 72.06 39.3901C73.53 38.0301 72.46 35.4701 70.42 35.4701C69.91 35.4701 69.5 35.6401 69.17 35.8401C68.13 36.4701 66.99 37.0201 65.99 37.6901C65.99 36.7701 66.09 34.5001 65.92 33.8101C65.48 31.9501 63.0799 31.4701 61.91 32.9101C61.4199 33.5201 61.39 33.9801 61.39 35.0401C61.39 36.8101 61.39 38.5701 61.39 40.3401C60.12 41.0101 57.84 42.3801 56.66 43.0701C56.32 43.2701 52.1399 45.7401 51.8799 45.8001V34.8201L57.21 31.7301C58.05 31.1301 58.41 30.0101 58.03 29.0001C57.77 28.3201 57.0199 27.5801 56.1999 27.5801C55.57 27.5801 55.1399 27.6101 54.6099 27.9301C53.7099 28.4801 52.75 28.9401 51.8799 29.5301C51.8799 28.6601 51.96 26.1101 51.85 25.4401C51.69 24.3601 50.9599 23.3601 49.7699 23.3601C48.9899 23.3601 48.49 23.4801 47.94 24.0201C47.61 24.3601 47.33 24.8201 47.28 25.4201C47.19 26.6401 47.28 28.2601 47.28 29.5301Z" fill="#ADAFBA"></path></svg> 