<?xml version="1.0" encoding="UTF-8"?> <svg xmlns="http://www.w3.org/2000/svg" width="100" height="99" viewBox="0 0 100 99" fill="none"><path d="M50.15 94.02C62.44 94.02 73.57 89.04 81.62 80.98C89.68 72.93 94.66 61.8 94.66 49.5C94.66 37.21 89.68 26.08 81.62 18.03C73.57 9.97 62.44 4.99 50.15 4.99C37.85 4.99 26.72 9.97 18.67 18.03C10.62 26.08 5.63002 37.21 5.63002 49.5C5.63002 61.8 10.61 72.93 18.67 80.98C26.72 89.03 37.85 94.02 50.15 94.02ZM85.15 84.5C76.19 93.46 63.81 99 50.15 99C36.48 99 24.1 93.46 15.15 84.5C6.19002 75.55 0.650024 63.17 0.650024 49.5C0.650024 35.84 6.19002 23.46 15.15 14.5C24.1 5.54 36.48 0 50.15 0C63.81 0 76.19 5.54 85.15 14.5C94.11 23.46 99.65 35.84 99.65 49.5C99.65 63.17 94.11 75.55 85.15 84.5Z" fill="#ADAFBA"></path><path d="M34.16 49.2601C34.16 48.5001 33.77 47.8601 33.02 47.3501C32.26 46.8301 31.31 46.5701 30.17 46.5701C28.1 46.5701 26.72 47.2601 26.03 48.6601L20.84 46.4601C21.67 44.8101 22.94 43.5001 24.63 42.5101C26.33 41.5201 28.25 41.0301 30.4 41.0301C33.21 41.0301 35.53 41.8001 37.38 43.3401C39.23 44.8901 40.15 46.8201 40.15 49.1501C40.15 51.2501 39.28 52.9601 37.53 54.2701C39.76 55.7101 40.87 57.6701 40.87 60.1501C40.87 62.5301 39.9 64.5401 37.95 66.1801C36.03 67.7801 33.59 68.5701 30.63 68.5701C28.15 68.5701 26.01 67.9901 24.21 66.8301C22.39 65.6401 21.17 64.1001 20.53 62.2001L26.03 60.3001C26.24 61.1101 26.75 61.7701 27.57 62.2801C28.39 62.7801 29.37 63.0301 30.51 63.0301C31.78 63.0301 32.81 62.7401 33.62 62.1601C34.43 61.5801 34.84 60.8501 34.84 59.9601C34.84 59.0801 34.43 58.3501 33.62 57.7801C32.81 57.2101 31.8 56.9301 30.59 56.9301H28.58V52.1101H29.9C31.12 52.1101 32.13 51.8401 32.94 51.3101C33.75 50.7801 34.16 50.1001 34.16 49.2601ZM53.39 68.5701C50.91 68.5701 48.75 67.9201 46.9 66.6001C45.08 65.2901 43.8 63.5401 43.07 61.3701L48.88 59.8101C49.26 60.8201 49.84 61.6101 50.64 62.1801C51.44 62.7501 52.35 63.0301 53.39 63.0301C54.6 63.0301 55.62 62.6901 56.43 61.9901C57.24 61.3001 57.64 60.4401 57.64 59.4301C57.64 58.3401 57.17 57.4301 56.22 56.7001C55.27 55.9601 54.09 55.6001 52.67 55.6001H45.12L46.56 41.5201H61.28V46.8001H51.3L50.96 50.2901H53.54C56.43 50.2901 58.83 51.1601 60.75 52.9101C62.7 54.6501 63.67 56.8301 63.67 59.4301C63.67 62.0401 62.69 64.2101 60.71 65.9601C58.76 67.7001 56.32 68.5701 53.39 68.5701ZM65.87 46.1101C65.87 44.1201 66.53 42.4601 67.85 41.1401C69.19 39.8001 70.84 39.1301 72.82 39.1301C74.76 39.1301 76.41 39.8001 77.75 41.1401C79.09 42.4801 79.76 44.1401 79.76 46.1101C79.76 48.1601 79.1 49.8401 77.79 51.1601C76.47 52.4701 74.81 53.1301 72.82 53.1301C70.84 53.1301 69.19 52.4601 67.85 51.1201C66.53 49.8101 65.87 48.1401 65.87 46.1101ZM72.82 43.7601C72.16 43.7601 71.6 43.9901 71.15 44.4401C70.69 44.9001 70.46 45.4601 70.46 46.1101C70.46 46.7701 70.69 47.3301 71.15 47.7801C71.6 48.2401 72.16 48.4701 72.82 48.4701C73.47 48.4701 74.03 48.2401 74.49 47.7801C74.94 47.3301 75.17 46.7701 75.17 46.1101C75.17 45.4601 74.94 44.9001 74.49 44.4401C74.03 43.9901 73.47 43.7601 72.82 43.7601Z" fill="#ADAFBA"></path></svg> 