<?xml version="1.0" encoding="UTF-8"?> <svg xmlns="http://www.w3.org/2000/svg" width="99" height="99" viewBox="0 0 99 99" fill="none"><path d="M49.5 94.02C61.79 94.02 72.92 89.03 80.97 80.98C89.03 72.93 94.01 61.8 94.01 49.5C94.01 37.21 89.03 26.08 80.97 18.03C72.92 9.97 61.79 4.99 49.5 4.99C37.2 4.99 26.07 9.97 18.02 18.03C9.97 26.08 4.98 37.21 4.98 49.5C4.98 61.8 9.96 72.93 18.02 80.98C26.07 89.04 37.2 94.02 49.5 94.02ZM84.5 84.5C75.54 93.46 63.16 99 49.5 99C35.83 99 23.45 93.46 14.5 84.5C5.54 75.55 0 63.17 0 49.5C0 35.84 5.54 23.46 14.5 14.5C23.45 5.54 35.83 0 49.5 0C63.16 0 75.54 5.54 84.5 14.5C93.46 23.46 99 35.84 99 49.5C99 63.17 93.46 75.55 84.5 84.5Z" fill="#ADAFBA"></path><path d="M63.1 37.2401C62.79 36.9301 62.43 36.7701 62.04 36.7701C61.95 36.7701 61.83 36.7901 61.66 36.8401L49.34 39.8901L54.66 25.4801C54.76 25.2701 54.82 25.0801 54.82 24.9101C54.82 24.5601 54.68 24.2601 54.41 24.0001C54.14 23.7401 53.81 23.6101 53.42 23.6101H43.21C42.88 23.6101 42.58 23.7001 42.34 23.8901C42.09 24.0701 41.92 24.3101 41.84 24.6001L35.58 50.2801C35.48 50.7801 35.61 51.1801 35.99 51.4901C36.26 51.7201 36.58 51.8401 36.95 51.8401C37.12 51.8401 37.24 51.8301 37.33 51.8101L49.96 48.6601L43.83 73.8101C43.75 74.1401 43.79 74.4501 43.97 74.7501C44.15 75.0401 44.41 75.2301 44.76 75.3401C44.97 75.3801 45.12 75.4001 45.2 75.4001C45.8 75.4001 46.24 75.1401 46.51 74.6201L63.31 38.6101C63.54 38.1101 63.47 37.6501 63.1 37.2401Z" fill="#ADAFBA"></path></svg> 