<?xml version="1.0" encoding="UTF-8"?> <svg xmlns="http://www.w3.org/2000/svg" width="99" height="99" viewBox="0 0 99 99" fill="none"><path d="M49.5 94.02C61.79 94.02 72.92 89.03 80.97 80.98C89.03 72.93 94.01 61.8 94.01 49.5C94.01 37.21 89.03 26.08 80.97 18.03C72.92 9.97 61.79 4.99 49.5 4.99C37.2 4.99 26.07 9.97 18.02 18.03C9.96 26.08 4.98 37.21 4.98 49.5C4.98 61.8 9.97 72.93 18.02 80.98C26.07 89.04 37.2 94.02 49.5 94.02ZM84.5 84.5C75.54 93.46 63.16 99 49.5 99C35.83 99 23.45 93.46 14.5 84.5C5.54 75.55 0 63.17 0 49.5C0 35.84 5.54 23.46 14.5 14.5C23.45 5.54 35.83 0 49.5 0C63.16 0 75.54 5.54 84.5 14.5C93.46 23.46 99 35.84 99 49.5C99 63.17 93.46 75.55 84.5 84.5Z" fill="#ADAFBA"></path><path fill-rule="evenodd" clip-rule="evenodd" d="M33 55.65C32.67 55.87 32.15 56.09 31.81 56.28C31.39 56.52 31.02 56.82 30.63 57C30.62 57.04 25.85 61.04 25.05 61.04C24.83 61.25 24.36 61.32 24.06 61.37L23.38 61.44L23.54 65.75C24.02 65.75 24.41 65.72 24.87 65.65C25.24 65.58 25.77 65.38 26.11 65.4C26.26 65.25 26.4 65.22 26.63 65.13C26.85 65.05 27 64.98 27.23 64.91C27.27 64.87 28.27 64.31 28.42 64.22C28.86 63.94 29.17 63.75 29.55 63.46C29.86 63.21 31.51 61.85 31.71 61.79C31.85 61.48 32.83 60.81 33.2 60.54C33.68 60.2 34.37 59.73 35.01 59.55C35.26 59.41 35.72 59.27 36.03 59.35L36.44 59.25C36.72 59.24 37.29 59.27 37.45 59.44C37.89 59.43 38.46 59.75 38.79 59.93C39 60.05 39.13 60.14 39.34 60.28C39.51 60.39 39.71 60.47 39.76 60.61C40.27 60.82 41.65 62.03 42.07 62.38L44.26 64.13C44.53 64.16 44.57 64.24 44.81 64.39C44.97 64.5 45.15 64.59 45.34 64.69C45.71 64.9 46.08 65.04 46.48 65.2C49.41 66.28 52.02 65.73 54.56 64.16C55.21 63.75 56.22 62.92 56.59 62.73C56.64 62.58 57.43 61.99 57.61 61.85C57.79 61.71 57.97 61.54 58.14 61.4C58.35 61.24 58.42 61.19 58.64 61C59.02 60.69 60.48 59.62 61.06 59.59C61.21 59.43 61.18 59.47 61.42 59.4C61.54 59.37 61.67 59.35 61.8 59.32C62.38 59.25 62.99 59.24 63.53 59.4C64 59.49 64.36 59.67 64.74 59.86C65.06 60.03 65.51 60.3 65.73 60.57C65.89 60.6 65.76 60.55 65.92 60.65C65.92 60.65 66.04 60.73 66.05 60.74L70.4 64.17L71.94 64.96C72.04 65 72.11 65.02 72.2 65.07L72.46 65.24C72.75 65.23 73.47 65.51 73.87 65.6C74.37 65.7 74.91 65.73 75.45 65.76L75.61 61.44L74.55 61.3C74.08 61.15 73.85 61.07 73.4 60.86C73.19 60.76 73.1 60.69 72.88 60.55C72.64 60.4 72.58 60.43 72.45 60.19C72.24 60.15 72.33 60.17 72.12 60.03L67.91 56.68L65.63 55.46C65.3 55.45 64.72 55.2 64.35 55.11C61.96 54.58 60.66 55.26 60.05 55.22C59.91 55.36 60.08 55.26 59.8 55.37C59.75 55.4 59.63 55.43 59.58 55.45C59.38 55.52 59.26 55.57 59.08 55.65C58.08 56.06 57.49 56.53 56.69 57.02L56.45 57.23C55 58.35 52.65 60.44 51.22 61.05C50.59 61.32 49.6 61.54 48.89 61.38L48.65 61.29C48.65 61.27 48.62 61.27 48.6 61.26C48.07 61.3 46.72 60.56 46.42 60.24C46.01 60.06 44.54 58.82 44.1 58.46L41.86 56.7C41.57 56.58 40.76 56.02 40.01 55.69C38.43 55 36.88 54.76 35.16 55.02C34.24 55.16 33.79 55.42 33 55.65Z" fill="#ADAFBA"></path><path fill-rule="evenodd" clip-rule="evenodd" d="M49.87 39.9699C51.48 39.9699 52.73 40.9399 53.55 41.8599C54.41 42.8099 54.75 44.0099 54.75 45.3699C54.75 46.7699 54.05 47.9799 53.14 48.8999C52.47 49.5799 51.12 50.3299 50.09 50.3399C49.87 50.3399 49.62 50.3799 49.49 50.3699C48.28 50.2999 47.46 50.0899 46.57 49.4499C45.76 48.8599 45.22 48.2599 44.77 47.3599C44.54 46.8799 44.25 45.9799 44.25 45.2799C44.25 44.2999 44.39 43.8399 44.72 43.0699C44.97 42.4699 45.31 41.9999 45.73 41.5799C45.95 41.3599 46.13 41.1699 46.39 40.9799C47.1 40.4399 48.14 39.9699 49.14 39.9699H49.87ZM36.35 46.6199C36.49 48.2899 37.07 50.0199 37.9 51.5499C38.62 51.6699 39.33 51.8899 40.03 52.1999C40.79 52.5299 41.59 53.0899 41.89 53.2099L44.13 54.9799C44.57 55.3399 46.04 56.5699 46.45 56.7499C46.75 57.0699 48.1 57.8099 48.63 57.7799C48.65 57.7899 48.67 57.7799 48.68 57.7999L48.91 57.8899C49.62 58.0499 50.62 57.8399 51.25 57.5699C52.67 56.9499 55.02 54.8699 56.48 53.7499L56.71 53.5299C57.52 53.0399 58.11 52.5799 59.11 52.1599C59.29 52.0799 59.41 52.0399 59.61 51.9699C59.66 51.9499 59.78 51.9099 59.83 51.8899C60.1 51.7699 59.94 51.8699 60.08 51.7399C60.31 51.7499 60.65 51.6599 61.11 51.5699C61.31 51.1899 61.5 50.7799 61.68 50.3499C61.77 50.1499 61.83 50.0199 61.91 49.7999C62.73 47.3599 62.7 47.1099 62.7 44.4599C62.7 43.6399 62.63 42.9599 62.46 42.2799C62.28 41.5999 62.13 40.9999 61.89 40.3899C61.66 39.7999 61.41 39.2299 61.12 38.6999C60.77 38.0699 60.11 37.1199 59.6 36.5499C58.64 35.4599 57.54 34.4799 56.29 33.7199C54.12 32.4199 52.25 31.9899 49.61 31.8499C49.05 31.8199 47.9 31.9399 47.34 32.0399C45.67 32.3199 43.75 33.0199 42.46 33.8899C41.66 34.4299 41.06 34.8399 40.4 35.5099C40.27 35.6399 40.16 35.6899 40.06 35.8199C39.76 36.1999 39.41 36.5099 38.95 37.1199C36.85 39.9099 36.06 43.0299 36.35 46.6199ZM49.48 53.1399C50.09 53.1399 50.7 53.2799 51.15 53.4599C51.51 53.6099 52.16 54.0299 52.16 54.4799C52.16 54.7699 51.41 55.2799 51.17 55.3899C50.39 55.7399 48.61 55.7399 47.84 55.3899C47.47 55.2199 46.88 54.8399 46.9 54.3999C46.91 54.3199 46.98 54.1499 47.04 54.0699C47.07 54.0099 47.09 53.9999 47.13 53.9499C47.63 53.3799 48.71 53.1399 49.48 53.1399ZM40.93 50.5099C40.93 49.8099 41.29 49.6899 41.79 49.6899C42.52 49.6899 43.36 50.3299 43.83 50.7999C44.39 51.3599 44.99 52.1399 44.99 53.0599C44.99 53.6899 44.33 53.8299 43.77 53.6699C42.52 53.3099 40.93 51.6399 40.93 50.5099ZM54.02 53.0099C54.02 52.3299 54.4 51.7699 54.76 51.2899C55.36 50.4799 57.06 49.1399 57.9 49.9099C58.72 50.6799 57.22 52.3899 56.56 52.9199C56.04 53.3399 55.19 53.9699 54.42 53.6499C54.22 53.5599 54.02 53.2699 54.02 53.0099ZM57.52 45.4499V44.8499C57.52 44.0199 57.94 42.5999 58.85 42.5999C59.21 42.5999 59.65 43.2199 59.77 43.4999C60.09 44.2899 60.17 46.1599 59.7 46.9499C58.52 48.9499 57.52 46.6899 57.52 45.4499ZM40.19 42.5999C41.6 42.5999 41.77 45.4999 41.26 46.7799C40.8 47.9199 39.85 48.1799 39.27 46.8099C38.53 45.0599 39.28 42.5999 40.19 42.5999ZM56.87 40.5699C55.7 40.2399 54.02 38.5899 54.02 37.4199C54.02 37.0299 54.25 36.5999 54.62 36.5999C55.2 36.5999 55.59 36.7399 56.06 37.0199C56.43 37.2499 56.67 37.4599 56.96 37.7499C57.46 38.2499 58.81 39.8999 57.69 40.5799C57.5 40.6999 57.12 40.6299 56.87 40.5699ZM44.47 38.7599C44.27 39.0699 43.8 39.5899 43.5 39.8199C43.11 40.1199 42.73 40.3899 42.2 40.5499C41.47 40.7699 41.38 40.6099 41.11 40.3499C41.01 40.2499 40.93 40.1899 40.93 40.0099C40.93 39.3099 41.25 38.6399 41.69 38.1899C42.14 37.7299 42.01 37.7999 42.54 37.3499C42.94 36.9999 43.72 36.5499 44.3 36.5499C44.49 36.5499 45.03 36.8499 45.03 37.2899C45.03 37.7899 44.67 38.4299 44.47 38.7599ZM51.24 36.8399C50.46 37.2099 48.58 37.2299 47.81 36.8399C47.46 36.6699 46.89 36.2099 46.89 35.9499C46.89 35.5099 47.41 35.1699 47.75 34.9999C49.17 34.2999 52.12 34.6799 52.12 35.9499C52.12 36.3199 51.53 36.7099 51.24 36.8399Z" fill="#ADAFBA"></path><path fill-rule="evenodd" clip-rule="evenodd" d="M62.96 39.7699C63.2 40.2899 63.48 41.2799 63.61 41.8299C64.21 44.2199 64.12 46.6899 63.46 49.0499C63.23 49.8499 62.92 50.6699 62.56 51.4199C63.07 51.4199 63.67 51.4799 64.35 51.6299C64.72 51.7099 65.3 51.9599 65.63 51.9699L67.91 53.1999L68.82 53.9199C68.93 53.6699 69.03 53.4099 69.12 53.1899C69.35 52.5999 69.56 52.1299 69.59 51.4299C69.63 50.7599 69.22 50.3799 68.76 50.0799C68.77 49.8899 68.83 49.6799 68.87 49.4899L69.1 48.2999C69.25 47.5699 69.36 47.9599 69.89 47.6599C70.38 47.3799 70.66 46.9199 70.66 46.2799V44.1999C70.66 42.4199 69.41 42.6599 69.21 42.3699C69.17 42.3099 69.13 42.1399 69.12 42.0699L68.88 40.8399C68.85 40.6799 68.78 40.3999 68.76 40.2299C69.21 39.9899 69.63 39.4799 69.63 38.9299C69.63 38.1699 69.12 37.0399 68.81 36.3799C68.57 35.8799 68.58 35.6999 68.12 35.3899C67.7 35.1099 67.36 35.1299 66.69 35.1299C66.43 34.6399 65.74 33.6499 65.39 33.1399C65.43 32.9899 65.53 32.8199 65.59 32.6499C65.67 32.4399 65.7 32.1799 65.7 31.9299C65.7 31.2299 64.9 30.5999 64.45 30.1499C64.01 29.7099 63.37 28.9099 62.67 28.9099C61.91 28.9099 61.98 29.1399 61.51 29.2499C61.17 29.0299 60.85 28.8199 60.49 28.5799C60.17 28.3599 59.81 28.0899 59.48 27.9199C59.48 26.6899 59.39 26.3099 58.31 25.8399C57.79 25.6099 56.3 24.9799 55.76 24.9799C55.2 24.9799 54.7 25.4199 54.42 25.8399L52.31 25.4399C52.12 25.3799 52.11 25.0999 52.02 24.8699C51.72 24.0899 51.01 23.9599 50.27 23.9399H49.53C49.01 23.9399 48.39 23.9699 47.91 24.0399C46.94 24.1799 46.97 25.2899 46.71 25.4299L44.53 25.8399C44.36 25.5199 43.76 24.9799 43.28 24.9799C42.69 24.9799 41.23 25.5799 40.68 25.8399C40.23 26.0599 40 26.0899 39.73 26.5299C39.5 26.9399 39.52 27.3299 39.52 27.9599C39.22 28.0299 38 28.8899 37.72 29.0999C37.57 29.2099 37.53 29.2999 37.33 29.1999C36.82 28.9699 36.39 28.7899 35.79 29.0199C35.37 29.1899 35.06 29.6199 34.73 29.9099C34.45 30.1599 34.01 30.5899 33.79 30.8699C33.46 31.2999 33.3 31.5099 33.3 32.1499C33.3 32.6099 33.51 32.7799 33.6 33.1399C33.38 33.4699 33.17 33.7899 32.94 34.1299C32.78 34.3799 32.37 34.8599 32.3 35.1299C31.73 35.1299 31.25 35.1299 30.9 35.3599C30.34 35.7299 29.97 36.8499 29.71 37.5099C29.35 38.4199 29.08 39.2799 29.91 39.9799C30.07 40.1099 30.03 40.1199 30.23 40.2299C30.19 40.6499 29.96 41.5799 29.87 42.0699C29.81 42.3699 29.84 42.4199 29.55 42.4899C28.68 42.6899 28.33 43.2999 28.33 44.1999V46.2799C28.33 46.9099 28.6 47.3499 29.08 47.6399C29.3 47.7699 29.39 47.7499 29.63 47.8299C29.91 47.9199 29.91 48.3999 30 48.8799C30.05 49.0899 30.07 49.2299 30.12 49.4499C30.16 49.6499 30.23 49.8899 30.23 50.0799C28.72 51.0799 29.48 52.2499 30.17 53.9099C30.45 53.6699 30.63 53.5199 30.63 53.5099C31.02 53.3399 31.39 53.0399 31.81 52.7999C32.15 52.5999 32.67 52.3799 33 52.1599C33.79 51.9399 34.24 51.6799 35.16 51.5399C35.59 51.4699 36.01 51.4399 36.42 51.4299C35.52 49.5799 34.98 47.4699 34.98 45.2399C34.98 41.4399 36.23 38.4999 38.43 35.7699C38.51 35.6799 38.56 35.6499 38.64 35.5399C38.73 35.4199 38.75 35.3999 38.86 35.2899C39.54 34.6099 39.95 34.1699 40.74 33.5899C41.68 32.8799 42.48 32.4199 43.59 31.8999C44.92 31.2799 47.53 30.5299 49.52 30.6599C50.11 30.7099 50.65 30.6599 51.21 30.7399C51.99 30.8499 52.74 31.0099 53.46 31.2099C55.77 31.8499 58.03 33.1899 59.72 34.8799C61.07 36.2299 61.82 37.4099 62.69 39.1299C62.8 39.3499 62.86 39.5399 62.96 39.7699Z" fill="#ADAFBA"></path><path fill-rule="evenodd" clip-rule="evenodd" d="M51.88 46.28C52.31 45.24 52.2 44.11 51.37 43.28C50.37 42.29 48.7 42.22 47.63 43.28C47.27 43.65 46.86 44.23 46.86 44.94C46.86 45.8 47.01 46.44 47.63 47.06C48.88 48.32 51.23 47.87 51.88 46.28Z" fill="#ADAFBA"></path><path fill-rule="evenodd" clip-rule="evenodd" d="M33 64.95C32.67 65.17 32.15 65.39 31.81 65.59C31.39 65.82 31.02 66.13 30.63 66.3C30.62 66.34 25.85 70.34 25.05 70.34C24.83 70.56 24.36 70.63 24.06 70.67L23.38 70.74L23.54 75.05C24.02 75.05 24.41 75.03 24.87 74.95C25.24 74.88 25.77 74.68 26.11 74.7C26.26 74.55 26.4 74.52 26.63 74.44C26.85 74.35 27 74.28 27.23 74.22C27.27 74.17 28.27 73.62 28.42 73.52C28.86 73.25 29.17 73.05 29.55 72.76C29.86 72.52 31.51 71.15 31.71 71.09C31.85 70.78 32.83 70.11 33.2 69.84C33.68 69.5 34.37 69.03 35.01 68.86C35.26 68.71 35.72 68.57 36.03 68.65L36.44 68.55C36.72 68.54 37.29 68.57 37.45 68.74C37.89 68.73 38.46 69.05 38.79 69.23C39 69.35 39.13 69.44 39.34 69.58C39.51 69.69 39.71 69.77 39.76 69.91C40.27 70.12 41.65 71.33 42.07 71.68L44.26 73.43C44.53 73.46 44.57 73.54 44.81 73.7C44.97 73.8 45.15 73.89 45.34 74C45.71 74.2 46.08 74.35 46.48 74.5C49.41 75.58 52.02 75.03 54.56 73.46C55.21 73.06 56.22 72.23 56.59 72.03C56.64 71.88 57.43 71.29 57.61 71.15C57.79 71.01 57.97 70.84 58.14 70.7C58.35 70.54 58.42 70.49 58.64 70.3C59.02 69.99 60.48 68.92 61.06 68.89C61.21 68.74 61.18 68.77 61.42 68.71C61.54 68.67 61.67 68.65 61.8 68.62C62.38 68.55 62.99 68.54 63.53 68.7C64 68.79 64.36 68.97 64.74 69.16C65.06 69.33 65.51 69.6 65.73 69.87C65.89 69.9 65.76 69.85 65.92 69.95C65.92 69.95 66.04 70.03 66.05 70.04L70.4 73.47L71.94 74.26C72.04 74.3 72.11 74.32 72.2 74.37L72.46 74.54C72.75 74.53 73.47 74.82 73.87 74.9C74.37 75 74.91 75.03 75.45 75.06L75.61 70.75L74.55 70.6C74.08 70.46 73.85 70.37 73.4 70.16C73.19 70.06 73.1 69.99 72.88 69.85C72.64 69.7 72.58 69.73 72.45 69.5C72.24 69.45 72.33 69.47 72.12 69.33L67.91 65.98L65.63 64.76C65.3 64.75 64.72 64.5 64.35 64.42C61.96 63.88 60.66 64.57 60.05 64.53C59.91 64.66 60.08 64.56 59.8 64.68C59.75 64.7 59.63 64.74 59.58 64.75C59.38 64.82 59.26 64.87 59.08 64.95C58.08 65.36 57.49 65.83 56.69 66.32L56.45 66.53C55 67.66 52.65 69.74 51.22 70.36C50.59 70.63 49.6 70.84 48.89 70.68L48.65 70.59C48.65 70.57 48.62 70.58 48.6 70.56C48.07 70.6 46.72 69.86 46.42 69.54C46.01 69.36 44.54 68.12 44.1 67.76L41.86 66C41.57 65.88 40.76 65.32 40.01 64.99C38.43 64.3 36.88 64.06 35.16 64.33C34.24 64.47 33.79 64.72 33 64.95Z" fill="#ADAFBA"></path></svg> 