<?xml version="1.0" encoding="UTF-8"?> <svg xmlns="http://www.w3.org/2000/svg" width="99" height="100" viewBox="0 0 99 100" fill="none"><path d="M49.5 94.3701C61.79 94.3701 72.92 89.3901 80.97 81.3301C89.03 73.2801 94.01 62.1501 94.01 49.8501C94.01 37.5601 89.03 26.4301 80.97 18.3801C72.92 10.3201 61.79 5.3401 49.5 5.3401C37.2 5.3401 26.07 10.3201 18.02 18.3801C9.96 26.4301 4.98 37.5601 4.98 49.8501C4.98 62.1501 9.97 73.2801 18.02 81.3301C26.07 89.3801 37.2 94.3701 49.5 94.3701ZM84.5 84.8501C75.54 93.8101 63.16 99.3501 49.5 99.3501C35.83 99.3501 23.45 93.8101 14.5 84.8501C5.54 75.9001 0 63.5201 0 49.8501C0 36.1901 5.54 23.8101 14.5 14.8501C23.45 5.8901 35.83 0.350098 49.5 0.350098C63.16 0.350098 75.54 5.8901 84.5 14.8501C93.46 23.8101 99 36.1901 99 49.8501C99 63.5201 93.46 75.9001 84.5 84.8501Z" fill="#ADAFBA"></path><path fill-rule="evenodd" clip-rule="evenodd" d="M19.96 39.6802V39.8102C20.25 40.0602 20.51 40.4402 20.72 40.6702L22.75 42.9002C23.36 43.5502 23.93 44.2302 24.57 44.8502L26.09 46.3502C26.33 46.5802 26.49 46.8702 26.83 46.5802L28.89 44.7702C29.49 44.2402 30.16 43.5902 30.66 42.9902L30.84 42.7802C31.04 42.5202 31.28 42.1802 31.41 41.8402C31.69 41.1102 31.36 40.0002 31.95 39.4302L32.55 38.8502C32.56 38.8402 32.58 38.8302 32.59 38.8202L32.95 38.4602C33.11 38.3102 33.31 38.1902 33.48 38.0402L38.13 42.9802C39.69 44.6802 41.25 46.2102 42.77 47.9202C42.95 48.1302 43.1 48.3102 43.33 48.5402C43.93 49.1502 44.44 49.8102 45.06 50.4002C45.58 50.8902 45.97 51.4302 46.49 51.9402C46.61 52.0702 46.65 52.0702 46.78 52.2102L49.72 55.3402C51.29 57.0902 52.89 58.5602 54.42 60.2902C55.19 61.1702 56.11 62.0402 56.74 62.7602C57.12 63.1902 57.54 63.6002 57.89 63.9802L59.06 65.2302C59.28 65.4702 59.44 65.5902 59.64 65.8302C60.58 66.9702 62.69 69.0302 63.73 70.2102L67.18 73.9102C68.12 74.7902 69.98 77.0802 70.83 77.5402C71.11 77.3902 71.32 77.2002 71.62 76.9302C71.76 76.8102 71.84 76.7602 71.98 76.6402L75.23 73.6602C75.53 73.3902 76.55 72.5802 76.41 72.0902L74.45 69.9002C74.12 69.6102 74.04 69.4802 73.78 69.1902L66.29 61.2102C66.22 61.1402 66.21 61.1202 66.14 61.0402L59.27 53.7302C59.19 53.6502 59.17 53.6302 59.08 53.5302L54.39 48.5702C54.25 48.4302 54.21 48.3802 54.07 48.2302C54.06 48.2202 54.01 48.1802 54 48.1602C53.97 48.1302 53.93 48.0902 53.89 48.0602C53.81 47.9702 53.78 47.9402 53.7 47.8502L52.73 46.8102C51.58 45.6902 49.93 43.7602 48.69 42.5102C48.11 41.9202 47.59 41.2002 47 40.7002L44.36 37.8602C44.1 37.5902 43.86 37.3402 43.69 37.1502C43.48 36.9302 43.3 36.7002 43.02 36.4402L39.02 32.1102L39.19 31.9602C39.2 31.9602 39.21 31.9402 39.22 31.9302L39.88 31.2102C39.89 31.2002 39.9 31.1902 39.91 31.1802L40.21 30.9002C40.22 30.8902 40.24 30.8702 40.25 30.8602L40.67 30.4302C40.68 30.4102 40.69 30.4002 40.7 30.3902L41.67 29.3902C42.13 28.9202 42.54 28.5002 43.02 28.0502L43.6 27.5002C43.63 27.4702 43.68 27.4002 43.69 27.3902C43.84 27.2202 43.88 27.2102 44.04 27.1102L46.56 25.5602C46.74 25.4902 46.86 25.4302 47.04 25.3802C48.76 24.8102 51.49 25.1902 53.31 25.4302C53.67 25.0802 53.82 24.8402 53.49 24.3102C53.25 23.9302 53 23.7302 52.57 23.4602C51.92 23.0602 50.86 22.6802 50.05 22.5002C46.1 21.6202 42.07 22.3902 38.97 24.8502C38.39 25.3202 35.54 28.0402 35.25 28.1502C35.09 27.8602 33.86 26.6302 33.48 26.4502C33.01 26.4202 28.95 30.5402 28.13 31.4102C27.68 31.8902 27.91 32.0202 28.24 32.4402C28.4 32.6402 28.53 32.7502 28.66 32.8802C28.79 33.0002 28.96 33.1402 29.11 33.3402C28.92 33.7102 28.39 34.0202 28.12 34.2902C27.73 34.6802 27.41 35.1502 26.99 35.1502C26.24 35.1702 26 34.9802 25.16 35.2102C23.97 35.5402 22.66 36.9502 21.86 37.7502C21.53 38.0802 21.21 38.3502 20.9 38.6902C20.74 38.8602 20.57 39.0402 20.42 39.1902L19.96 39.6802Z" fill="#ADAFBA"></path><path fill-rule="evenodd" clip-rule="evenodd" d="M79.04 31.3801V30.7101C78.85 30.3801 78.89 30.1401 78.4 30.3301C77.95 30.5001 73.69 33.2101 73.07 33.5401C70.67 34.8301 69.86 34.0501 68.54 32.1201L67.95 31.1401C67.7 30.6701 67.54 30.3301 67.41 29.6201C67.38 29.4701 67.35 29.2901 67.33 29.1101C67.28 28.7001 67.2 27.4501 67.49 27.1901L68.04 26.8701C68.05 26.8601 68.07 26.8501 68.08 26.8401L71.15 25.0601C71.7 24.7901 74.57 23.2001 74.8 22.6701C75 22.2001 74.72 21.9801 74.48 21.8501C74.11 21.6401 73.5 21.5201 73.05 21.4801C72.95 21.4701 72.82 21.4701 72.73 21.4601L72.54 21.4301C72.53 21.4301 72.5 21.4201 72.49 21.4101C72.47 21.4101 72.45 21.4101 72.43 21.4001H69.78C69.56 21.4801 68.01 21.5101 67.55 21.5901C66.85 21.7001 66.23 21.8601 65.61 22.0801C64.38 22.5401 63.47 23.0801 62.63 23.9601C59.96 26.7401 61 29.9801 59.95 33.4901C59.64 34.5001 58.88 35.1801 58.23 35.9701L56.8 37.7001C55.7 38.9501 53.1 41.7201 52.27 42.9301C52.33 43.0401 52.31 43.0101 52.41 43.1301L55.03 45.9601C55.47 46.3901 57.39 48.6001 57.95 48.8801L60.92 45.4201C60.93 45.4101 60.94 45.4001 60.95 45.3901C60.96 45.3701 60.97 45.3601 60.98 45.3501L63.97 41.9701C64.04 41.8701 64.01 41.9001 64.11 41.7801C64.16 41.7201 64.18 41.7001 64.24 41.6501L64.7 41.1901C64.71 41.1801 64.72 41.1701 64.73 41.1601L65.32 40.5801C66.13 39.8901 66.64 39.4801 67.92 39.5501C69.88 39.6601 71.85 39.5801 73.53 38.6701C73.66 38.6001 73.81 38.5201 73.95 38.4201L74.65 37.9501C74.77 37.8501 74.69 37.9101 74.79 37.8301L74.97 37.6801C75.6 37.1801 76.23 36.5901 76.74 35.9701C76.74 35.9601 76.76 35.9401 76.76 35.9301L76.82 35.8601C76.83 35.8501 76.87 35.8101 76.88 35.8001L77.63 34.8301C78.83 33.1601 78.72 32.0101 79.04 31.3801Z" fill="#ADAFBA"></path><path fill-rule="evenodd" clip-rule="evenodd" d="M24.33 69.2701C24.83 69.4001 25.2 69.1801 25.6 68.9201L28.95 66.8201C29.76 66.3501 31.25 65.2701 32.35 65.4601C32.96 65.5701 33.55 66.0701 33.84 66.4201C34.02 66.6401 34.17 66.7801 34.35 67.0701C34.53 67.3301 34.69 67.5601 34.84 67.7801C35.52 68.8501 36.02 70.1401 35.92 71.4901C35.85 72.5601 35.74 72.4801 34.94 72.9301C33.96 73.4801 32.95 74.1301 31.9 74.7001C31.26 75.0401 29.31 76.1001 28.89 76.4801C28.75 76.6001 28.38 76.8901 28.35 77.1301C28.29 77.5801 28.64 77.7601 28.88 77.8701C29.5 78.1601 30.49 78.2901 31.61 78.3101H32.18C34.14 78.2801 36.31 77.9601 37.43 77.6001C38.15 77.3601 38.85 77.0601 39.32 76.7301L39.98 76.2701C39.99 76.2601 40.01 76.2501 40.02 76.2401L40.94 75.3401C40.95 75.3301 41.03 75.2501 41.04 75.2401C41.66 74.4901 41.95 73.7301 42.21 72.8001C42.25 72.6401 42.31 72.4401 42.33 72.3301C42.56 71.1101 42.62 69.8101 42.77 68.5801C42.88 67.7601 43.03 67.1201 43.15 66.5101C43.33 65.5501 43.79 65.0601 44.34 64.4101C44.34 64.4001 44.36 64.3901 44.37 64.3801L45.01 63.6001C45.17 63.4401 45.18 63.4201 45.3 63.2801L45.68 62.8101C45.74 62.7401 45.74 62.7401 45.84 62.6501L46.38 62.0001C46.39 61.9901 46.4 61.9801 46.41 61.9701C46.42 61.9601 46.43 61.9401 46.44 61.9301L46.98 61.2901C46.99 61.2801 47.07 61.2001 47.08 61.1901C47.17 61.0901 47.15 61.1001 47.23 61.0101L48.75 59.2501C48.75 59.2401 48.77 59.2301 48.78 59.2201L49.35 58.6001C49.49 58.4201 49.39 58.5901 49.48 58.4101C48.84 57.5701 45.6 54.1901 44.56 53.0801C44.36 52.8801 44.02 52.4501 43.78 52.3501L39.07 57.9201C36.92 60.3301 36.79 60.0101 33.24 60.1201C31.64 60.1601 30.81 60.3001 29.58 61.0701C28.04 62.0301 27.07 62.9901 25.91 64.3001C25.08 65.2501 23.73 68.1201 24.33 69.2701Z" fill="#ADAFBA"></path></svg> 