<?xml version="1.0" encoding="UTF-8"?> <svg xmlns="http://www.w3.org/2000/svg" width="99" height="100" viewBox="0 0 99 100" fill="none"><path d="M49.5 94.3701C61.79 94.3701 72.92 89.3901 80.97 81.3301C89.03 73.2801 94.01 62.1501 94.01 49.8501C94.01 37.5601 89.03 26.4301 80.97 18.3801C72.92 10.3201 61.79 5.3401 49.5 5.3401C37.2 5.3401 26.07 10.3201 18.02 18.3801C9.97 26.4301 4.98 37.5601 4.98 49.8501C4.98 62.1501 9.96 73.2801 18.02 81.3301C26.07 89.3801 37.2 94.3701 49.5 94.3701ZM84.5 84.8501C75.54 93.8101 63.16 99.3501 49.5 99.3501C35.83 99.3501 23.45 93.8101 14.5 84.8501C5.54 75.9001 0 63.5201 0 49.8501C0 36.1901 5.54 23.8101 14.5 14.8501C23.45 5.8901 35.83 0.350098 49.5 0.350098C63.16 0.350098 75.54 5.8901 84.5 14.8501C93.46 23.8101 99 36.1901 99 49.8501C99 63.5201 93.46 75.9001 84.5 84.8501Z" fill="#ADAFBA"></path><path fill-rule="evenodd" clip-rule="evenodd" d="M22.78 46.3901V46.7801C23.04 47.5501 22.87 52.3701 23.17 52.6801C23.33 52.8501 26.07 53.0101 26.64 53.0801C26.86 53.1101 27.59 53.1301 27.79 53.2401C27.8 53.2501 28.6 56.2901 28.61 56.4001C28.41 56.5101 28.35 56.6301 28.17 56.7801C27.99 56.9301 27.91 57.0301 27.71 57.2101L26.76 58.0501C26.34 58.4001 26.16 58.5201 25.8 58.8701C25.5 59.1801 25.08 59.4801 24.87 59.7101C24.98 59.9801 25.16 60.2101 25.27 60.3901C25.63 61.0001 28.04 64.7101 28.31 65.0101C29.17 64.8301 31.72 63.3501 32.55 63.1601C32.71 63.4001 32.84 63.5501 33.08 63.7801C33.64 64.3501 34.22 64.9601 34.85 65.4801L33.3 70.2601C34.22 70.7201 35.17 71.2001 36.1 71.6701C36.77 72.0101 38.36 72.9301 38.97 73.1001L39.61 72.2001C39.67 72.1101 39.68 72.1001 39.76 72.0001L41.29 69.8601C41.3 69.8501 41.31 69.8401 41.32 69.8301C41.33 69.8201 41.34 69.8001 41.35 69.7901L41.56 69.4701C42.01 69.5401 42.66 69.8101 43.17 69.9501C45.45 70.5901 44.75 69.7901 45.36 72.6901C45.53 73.4901 45.66 74.4401 45.88 75.1201C46.49 75.1401 51.97 74.8401 52.14 74.7601L52.18 74.6701C52.27 74.3701 52.26 74.0201 52.29 73.7101L52.61 70.6401C52.62 70.5201 52.62 70.4401 52.64 70.3201C53.33 70.1701 53.88 70.0601 54.56 69.8601C54.89 69.7601 55.22 69.6601 55.46 69.5801L56.14 69.3401C56.3 69.2701 56.23 69.3001 56.3 69.2301C56.11 68.9201 52.15 64.8901 51.51 64.2301C51.21 63.9201 50.85 64.1201 50.18 64.2101C47.83 64.5001 45.09 63.9901 43.16 63.2001C40.13 61.9501 37.82 59.9401 36.07 57.1401C33.65 53.2601 33.15 48.1701 34.77 43.8901L35.49 42.2901C36.17 40.9701 37.01 39.7601 38.02 38.7001L38.11 38.6001C38.88 37.8101 39.77 37.0801 40.71 36.5101L41.1 36.2501C41.28 36.1401 41.45 36.0301 41.63 35.9401C43.71 34.8301 45.85 34.3001 48.05 34.1601C51.49 33.9401 55.36 35.2901 57.93 37.4401C61.57 40.4901 63.77 45.0101 63.51 49.9701C63.48 50.5201 63.4 51.0201 63.37 51.5401C64.28 52.2301 65.11 53.2401 65.98 54.0401C66.66 54.6801 67.92 56.0801 68.62 56.5601C68.66 56.5201 68.64 56.5601 68.71 56.4201C69.11 55.5501 69.38 54.0501 69.6 53.0901C71.08 52.6801 73.07 52.3701 74.56 52.0401C74.61 51.3101 74.32 46.7101 74.24 45.7201C73.54 45.5401 69.9 45.3901 69.59 45.2001C69.5 45.1201 69.09 43.2401 68.97 42.8501C68.89 42.5701 68.78 42.3701 68.74 42.0501C69.29 41.6701 69.63 41.2501 70.13 40.8401L72.03 39.1701C72.1 39.1001 72.16 39.0401 72.24 38.9701C72.35 38.8701 72.38 38.8601 72.49 38.7501C72.32 38.0301 69.43 34.2801 69.12 33.4101C68.71 33.4901 67.41 34.1201 66.95 34.3401C66.54 34.5401 65.18 35.1901 64.79 35.2601C64.41 34.6401 63.7 34.0001 63.17 33.5001C62.31 32.7101 62.42 33.2801 63.28 30.6101C63.41 30.2001 63.53 29.8401 63.66 29.4301L64.05 28.2101C63.87 28.0401 58.93 25.5201 58.45 25.3401C58.03 25.7501 56.9 27.4301 56.48 28.0201C56.32 28.2401 55.92 28.7801 55.85 28.9401C55.44 28.8801 54.67 28.5901 54.22 28.4701C53.65 28.3101 53.11 28.2001 52.51 28.0901C52.4 27.4201 52.16 26.4401 52.02 25.7501C51.86 24.9301 51.62 24.1101 51.52 23.3201L45.19 23.6401C44.99 24.6501 44.97 27.4101 44.69 28.1101C44.15 28.2801 43.54 28.3501 43 28.5001C42.57 28.6201 41.79 28.9201 41.39 28.9801C41.03 28.4601 39.52 26.8101 39.02 26.3001C38.7 25.9801 38.45 25.6101 38.18 25.4001C37.59 25.6301 33.88 28.2901 32.88 28.7901L34.73 32.9601C34.13 33.7201 33.38 34.0601 32.48 35.3501C31.52 35.3201 28.43 33.8001 27.68 33.8801L24.81 39.4401C25.17 39.7901 25.73 40.1101 26.19 40.4501L27.11 41.1301C27.61 41.4801 28.06 41.8801 28.56 42.1501C28.38 43.2101 27.95 44.1001 27.79 45.3401L22.78 46.3901Z" fill="#ADAFBA"></path><path fill-rule="evenodd" clip-rule="evenodd" d="M44.84 39.2701C45.01 39.5301 49.8 44.2701 50.35 44.8201C51.71 46.1601 50.17 47.1001 48.57 48.7101C48.18 49.0901 46.64 50.7101 46.33 50.8701C45.3 51.4201 44.71 50.5401 44.13 49.9901C43.43 49.3301 39.62 45.3901 39.13 45.0001C38.84 45.4101 38.5 47.0801 38.43 47.7101C38.17 50.0501 38.79 52.7301 40.12 54.5701C40.9 55.6601 41.54 56.4001 42.68 57.2401C44.11 58.2901 46 58.9701 47.82 59.1201C48.39 59.1701 48.97 59.1601 49.55 59.1201C49.69 59.1101 49.83 59.1001 49.91 59.0901C50.05 59.0701 50.2 59.0401 50.32 59.0201C50.59 58.9801 50.81 58.9201 51.09 58.8901L52 59.8401C52.01 59.8401 52.02 59.8601 52.03 59.8601C52.03 59.8701 52.05 59.8801 52.06 59.8901C52.14 59.9601 52.13 59.9501 52.2 60.0301L52.38 60.2101C53.67 61.5301 54.94 62.9701 56.33 64.3101L61.54 69.7101C61.96 70.1601 62.38 70.6101 62.83 71.0301L63.41 71.6201C63.41 71.6301 63.43 71.6401 63.43 71.6501C63.44 71.6601 63.45 71.6701 63.46 71.6801C64.32 72.4501 65.85 74.1501 66.79 75.1201C67.24 75.5801 67.53 75.9601 68.35 76.2201C69.26 76.5101 69.84 76.3901 70.64 76.1401C72.27 75.6401 73.58 74.7101 74.6 73.4301C75.59 72.2001 76.58 70.0801 76.07 68.5601C75.68 67.3901 74.59 66.6001 73.64 65.7001L70.92 63.0701C70.45 62.6201 70.06 62.1701 69.58 61.7301C67.77 60.0301 65.98 58.2201 64.18 56.4901L58.73 51.2601C58.89 49.9501 59.1 49.6301 58.97 48.0201C58.92 47.4801 58.86 47.0201 58.74 46.5301C58.69 46.3001 58.63 46.0601 58.56 45.8301L58.33 45.1601C57.65 43.4101 56.61 42.0101 55.48 41.0501C53.39 39.2601 50.64 38.2601 47.65 38.5701C46.75 38.6601 45.51 38.9501 44.84 39.2701Z" fill="#ADAFBA"></path></svg> 