<svg viewBox="0 0 277 209" fill="none" xmlns="http://www.w3.org/2000/svg">
<path d="M199.518 187.461H218.015V187.573H199.518V187.461Z" fill="#EBEBEB"/>
<path d="M157.997 192.621H180.797V192.733H157.997V192.621Z" fill="#EBEBEB"/>
<path d="M218.518 190.826H247.074V190.938H218.518V190.826Z" fill="#EBEBEB"/>
<path d="M24.9971 188.414H77.0235V188.526H24.9971V188.414Z" fill="#EBEBEB"/>
<path d="M82.0529 188.414H85.5735V188.526H82.0529V188.414Z" fill="#EBEBEB"/>
<path d="M97.9235 190.77H121.506V190.882H97.9235V190.77Z" fill="#EBEBEB"/>
<path d="M143.971 158.629H251.879C253.612 158.629 255.065 157.171 255.065 155.432V3.19726C255.065 1.4584 253.612 0 251.879 0H143.971C142.182 0 140.785 1.4584 140.785 3.19726V155.432C140.785 157.171 142.182 158.629 143.971 158.629ZM251.879 0.112185C253.556 0.112185 254.953 1.4584 254.953 3.19726V155.432C254.953 157.115 253.612 158.517 251.879 158.517H143.971C142.294 158.517 140.897 157.171 140.897 155.432V3.19726C140.897 1.51449 142.238 0.112185 143.971 0.112185H251.879Z" fill="#EBEBEB"/>
<path d="M23.0971 158.629H131.006C132.794 158.629 134.191 157.171 134.191 155.432V3.19726C134.191 1.4584 132.738 0 131.006 0H23.0971C21.3647 0 19.9118 1.40231 19.9118 3.19726V155.432C19.9118 157.171 21.3088 158.629 23.0971 158.629ZM131.006 0.112185C132.682 0.112185 134.079 1.4584 134.079 3.19726V155.432C134.079 157.115 132.738 158.517 131.006 158.517H23.0971C21.4206 158.517 20.0236 157.171 20.0236 155.432V3.19726C20.0236 1.51449 21.3647 0.112185 23.0971 0.112185H131.006Z" fill="#EBEBEB"/>
<path d="M236.903 65.1232H188.397C188.397 65.1232 191.024 59.0091 199.741 60.9163C199.741 60.9163 201.585 53.9608 208.235 54.9705C208.235 54.9705 213.768 48.9686 221.759 51.3245C229.806 53.6243 229.079 60.9724 229.079 60.9724C229.079 60.9724 235.059 59.3457 236.903 65.1232Z" fill="#FAFAFA"/>
<path d="M107.144 27.9901H155.65C155.65 27.9901 153.024 21.876 144.306 23.7832C144.306 23.7832 142.462 16.8277 135.812 17.8374C135.812 17.8374 130.279 11.8355 122.288 14.1914C114.241 16.4912 114.968 23.8393 114.968 23.8393C114.968 23.8393 108.988 22.2687 107.144 27.9901Z" fill="#FAFAFA"/>
<path d="M71.3794 26.4195H34.2735C34.2735 26.4195 35.6706 21.3151 41.0353 22.9978C41.0353 22.9978 39.9177 16.0985 43.8853 15.3132C47.8529 14.5279 49.0824 19.7445 49.0824 19.7445C49.0824 19.7445 51.9324 16.2668 56.5147 17.5008C61.0971 18.7909 61.8794 22.9418 61.8794 22.9418C61.8794 22.9418 68.5294 19.1836 71.3794 26.4195Z" fill="#FAFAFA"/>
<path d="M205.609 93.7864H250.706V183.534H205.609V93.7864Z" fill="#E6E6E6"/>
<path d="M213.768 93.7864H250.706V183.534H213.768V93.7864Z" fill="#F0F0F0"/>
<path d="M205.106 93.7864H251.712V95.2448H205.106V93.7864Z" fill="#E0E0E0"/>
<path d="M205.106 90.8135H251.712V92.2719H205.106V90.8135Z" fill="#E0E0E0"/>
<path d="M206.056 92.328H250.706V93.7864H206.056V92.328Z" fill="#F0F0F0"/>
<path d="M240.312 99.0591H247.241V106.127H240.312V99.0591Z" fill="#E6E6E6"/>
<path d="M240.312 99.0591H246.627V106.127H240.312V99.0591Z" fill="#F5F5F5"/>
<path d="M229.806 99.0591H236.735V106.127H229.806V99.0591Z" fill="#E6E6E6"/>
<path d="M229.806 99.0591H236.121V106.127H229.806V99.0591Z" fill="#F5F5F5"/>
<path d="M219.3 99.0591H226.229V106.127H219.3V99.0591Z" fill="#E6E6E6"/>
<path d="M219.3 99.0591H225.615V106.127H219.3V99.0591Z" fill="#F5F5F5"/>
<path d="M240.312 109.436H247.241V116.504H240.312V109.436Z" fill="#E6E6E6"/>
<path d="M240.312 109.436H246.627V116.504H240.312V109.436Z" fill="#F5F5F5"/>
<path d="M229.806 109.436H236.735V116.504H229.806V109.436Z" fill="#E6E6E6"/>
<path d="M229.806 109.436H236.121V116.504H229.806V109.436Z" fill="#F5F5F5"/>
<path d="M219.3 109.436H226.229V116.504H219.3V109.436Z" fill="#E6E6E6"/>
<path d="M219.3 109.436H225.615V116.504H219.3V109.436Z" fill="#F5F5F5"/>
<path d="M240.312 128.508H247.241V135.575H240.312V128.508Z" fill="#E6E6E6"/>
<path d="M240.312 128.508H246.627V135.575H240.312V128.508Z" fill="#F5F5F5"/>
<path d="M229.806 128.508H236.735V135.575H229.806V128.508Z" fill="#E6E6E6"/>
<path d="M229.806 128.508H236.121V135.575H229.806V128.508Z" fill="#F5F5F5"/>
<path d="M219.3 128.508H226.229V135.575H219.3V128.508Z" fill="#E6E6E6"/>
<path d="M219.3 128.508H225.615V135.575H219.3V128.508Z" fill="#F5F5F5"/>
<path d="M240.312 138.941H247.241V146.008H240.312V138.941Z" fill="#E6E6E6"/>
<path d="M240.312 138.941H246.627V146.008H240.312V138.941Z" fill="#F5F5F5"/>
<path d="M229.806 138.941H236.735V146.008H229.806V138.941Z" fill="#E6E6E6"/>
<path d="M229.806 138.941H236.121V146.008H229.806V138.941Z" fill="#F5F5F5"/>
<path d="M219.3 138.941H226.229V146.008H219.3V138.941Z" fill="#E6E6E6"/>
<path d="M219.3 138.941H225.615V146.008H219.3V138.941Z" fill="#F5F5F5"/>
<path d="M240.312 160.088H247.241V167.155H240.312V160.088Z" fill="#E6E6E6"/>
<path d="M240.312 160.088H246.627V167.155H240.312V160.088Z" fill="#F5F5F5"/>
<path d="M229.806 160.088H236.735V167.155H229.806V160.088Z" fill="#E6E6E6"/>
<path d="M229.806 160.088H236.121V167.155H229.806V160.088Z" fill="#F5F5F5"/>
<path d="M219.3 160.088H226.229V167.155H219.3V160.088Z" fill="#E6E6E6"/>
<path d="M219.3 160.088H225.615V167.155H219.3V160.088Z" fill="#F5F5F5"/>
<path d="M240.312 170.465H247.241V177.532H240.312V170.465Z" fill="#E6E6E6"/>
<path d="M240.312 170.465H246.627V177.532H240.312V170.465Z" fill="#F5F5F5"/>
<path d="M229.806 170.465H236.735V177.532H229.806V170.465Z" fill="#E6E6E6"/>
<path d="M229.806 170.465H236.121V177.532H229.806V170.465Z" fill="#F5F5F5"/>
<path d="M219.3 170.465H226.229V177.532H219.3V170.465Z" fill="#E6E6E6"/>
<path d="M219.3 170.465H225.615V177.532H219.3V170.465Z" fill="#F5F5F5"/>
<path d="M205.609 121.496H250.706V122.169H205.609V121.496Z" fill="#E0E0E0"/>
<path d="M205.609 154.086H250.706V154.759H205.609V154.086Z" fill="#E0E0E0"/>
<path d="M28.1824 75.2759H72.7765V184.151H28.1824V75.2759Z" fill="#E0E0E0"/>
<path d="M40.8677 75.2759H72.7765V184.151H40.8677V75.2759Z" fill="#F0F0F0"/>
<path d="M57.6324 84.1946H69.4794V89.9721H57.6324V84.1946Z" fill="#E6E6E6"/>
<path d="M57.6324 84.1946H68.6971V89.9721H57.6324V84.1946Z" fill="#F5F5F5"/>
<path d="M43.8853 84.1946H55.7324V89.9721H43.8853V84.1946Z" fill="#E6E6E6"/>
<path d="M43.8853 84.1946H54.95V89.9721H43.8853V84.1946Z" fill="#F5F5F5"/>
<path d="M57.6324 95.0765H69.4794V100.854H57.6324V95.0765Z" fill="#E6E6E6"/>
<path d="M57.6324 95.0765H68.6971V100.854H57.6324V95.0765Z" fill="#F5F5F5"/>
<path d="M43.8853 95.0765H55.7324V100.854H43.8853V95.0765Z" fill="#E6E6E6"/>
<path d="M43.8853 95.0765H54.95V100.854H43.8853V95.0765Z" fill="#F5F5F5"/>
<path d="M57.6324 108.987H69.4794V114.765H57.6324V108.987Z" fill="#E6E6E6"/>
<path d="M57.6324 108.987H68.6971V114.765H57.6324V108.987Z" fill="#F5F5F5"/>
<path d="M43.8853 108.987H55.7324V114.765H43.8853V108.987Z" fill="#E6E6E6"/>
<path d="M43.8853 108.987H54.95V114.765H43.8853V108.987Z" fill="#F5F5F5"/>
<path d="M57.6324 117.009H69.4794V122.786H57.6324V117.009Z" fill="#E6E6E6"/>
<path d="M57.6324 117.009H68.6971V122.786H57.6324V117.009Z" fill="#F5F5F5"/>
<path d="M43.8853 117.009H55.7324V122.786H43.8853V117.009Z" fill="#E6E6E6"/>
<path d="M43.8853 117.009H54.95V122.786H43.8853V117.009Z" fill="#F5F5F5"/>
<path d="M57.6324 130.134H69.4794V135.912H57.6324V130.134Z" fill="#E6E6E6"/>
<path d="M57.6324 130.134H68.6971V135.912H57.6324V130.134Z" fill="#F5F5F5"/>
<path d="M43.8853 130.134H55.7324V135.912H43.8853V130.134Z" fill="#E6E6E6"/>
<path d="M43.8853 130.134H54.95V135.912H43.8853V130.134Z" fill="#F5F5F5"/>
<path d="M57.6324 138.099H69.4794V143.877H57.6324V138.099Z" fill="#E6E6E6"/>
<path d="M57.6324 138.099H68.6971V143.877H57.6324V138.099Z" fill="#F5F5F5"/>
<path d="M43.8853 138.099H55.7324V143.877H43.8853V138.099Z" fill="#E6E6E6"/>
<path d="M43.8853 138.099H54.95V143.877H43.8853V138.099Z" fill="#F5F5F5"/>
<path d="M57.6324 152.403H69.4794V158.18H57.6324V152.403Z" fill="#E6E6E6"/>
<path d="M57.6324 152.403H68.6971V158.18H57.6324V152.403Z" fill="#F5F5F5"/>
<path d="M43.8853 152.403H55.7324V158.18H43.8853V152.403Z" fill="#E6E6E6"/>
<path d="M43.8853 152.403H54.95V158.18H43.8853V152.403Z" fill="#F5F5F5"/>
<path d="M57.6324 162.948H69.4794V168.726H57.6324V162.948Z" fill="#E6E6E6"/>
<path d="M57.6324 162.948H68.6971V168.726H57.6324V162.948Z" fill="#F5F5F5"/>
<path d="M43.8853 162.948H55.7324V168.726H43.8853V162.948Z" fill="#E6E6E6"/>
<path d="M43.8853 162.948H54.95V168.726H43.8853V162.948Z" fill="#F5F5F5"/>
<path opacity="0.05" d="M28.1824 104.444H72.7765V105.454H28.1824V104.444Z" fill="black"/>
<path opacity="0.05" d="M28.1824 125.927H72.7765V126.937H28.1824V125.927Z" fill="black"/>
<path opacity="0.05" d="M28.1824 147.635H72.7765V148.645H28.1824V147.635Z" fill="black"/>
<path d="M28.1824 72.0225H74.8441V75.5003H28.1824V72.0225Z" fill="#E0E0E0"/>
<path opacity="0.05" d="M28.1824 72.0225H38.8559V75.5003H28.1824V72.0225Z" fill="black"/>
<path d="M136.259 50.8196H186.665V182.3H136.259V50.8196Z" fill="#E6E6E6"/>
<path d="M154.868 50.8196H205.274V182.3H154.868V50.8196Z" fill="#F0F0F0"/>
<path d="M159.338 59.7383H200.915V66.4133H159.338V59.7383Z" fill="#E6E6E6"/>
<path d="M159.282 59.7383H199.294V66.4133H159.282V59.7383Z" fill="#F5F5F5"/>
<path d="M159.338 71.0129H200.915V77.6879H159.338V71.0129Z" fill="#E6E6E6"/>
<path d="M159.282 71.0129H199.294V77.6879H159.282V71.0129Z" fill="#F5F5F5"/>
<path d="M159.338 82.7361H200.915V89.4111H159.338V82.7361Z" fill="#E6E6E6"/>
<path d="M159.282 82.7361H199.294V89.4111H159.282V82.7361Z" fill="#F5F5F5"/>
<path d="M159.338 94.4595H200.915V101.134H159.338V94.4595Z" fill="#E6E6E6"/>
<path d="M159.282 94.4595H199.294V101.134H159.282V94.4595Z" fill="#F5F5F5"/>
<path d="M159.338 106.127H200.915V112.802H159.338V106.127Z" fill="#E6E6E6"/>
<path d="M159.282 106.127H199.294V112.802H159.282V106.127Z" fill="#F5F5F5"/>
<path d="M159.338 117.85H200.915V124.525H159.338V117.85Z" fill="#E6E6E6"/>
<path d="M159.282 117.85H199.294V124.525H159.282V117.85Z" fill="#F5F5F5"/>
<path d="M159.338 130.751H200.915V137.426H159.338V130.751Z" fill="#E6E6E6"/>
<path d="M159.282 130.751H199.294V137.426H159.282V130.751Z" fill="#F5F5F5"/>
<path d="M159.338 143.709H200.915V150.384H159.338V143.709Z" fill="#E6E6E6"/>
<path d="M159.282 143.709H199.294V150.384H159.282V143.709Z" fill="#F5F5F5"/>
<path d="M159.338 156.61H200.915V163.285H159.338V156.61Z" fill="#E6E6E6"/>
<path d="M159.282 156.61H199.294V163.285H159.282V156.61Z" fill="#F5F5F5"/>
<path d="M159.338 169.511H200.915V176.186H159.338V169.511Z" fill="#E6E6E6"/>
<path d="M159.282 169.511H199.294V176.186H159.282V169.511Z" fill="#F5F5F5"/>
<path d="M134.918 49.4734H206.726V52.6707H134.918V49.4734Z" fill="#F5F5F5"/>
<path d="M134.918 43.6959H206.726V46.8932H134.918V43.6959Z" fill="#F5F5F5"/>
<path d="M137.321 46.2762H205.274V49.4734H137.321V46.2762Z" fill="#F0F0F0"/>
<path d="M136.259 59.7383H150.285V66.4133H136.259V59.7383Z" fill="#E0E0E0"/>
<path d="M136.259 70.7324H150.285V77.4074H136.259V70.7324Z" fill="#E0E0E0"/>
<path d="M136.259 81.7826H150.285V88.4576H136.259V81.7826Z" fill="#E0E0E0"/>
<path d="M136.259 94.4595H150.285V101.134H136.259V94.4595Z" fill="#E0E0E0"/>
<path d="M136.259 106.127H150.285V112.802H136.259V106.127Z" fill="#E0E0E0"/>
<path d="M136.259 117.85H150.285V124.525H136.259V117.85Z" fill="#E0E0E0"/>
<path d="M136.259 130.751H150.285V137.426H136.259V130.751Z" fill="#E0E0E0"/>
<path d="M136.259 143.709H150.285V150.384H136.259V143.709Z" fill="#E0E0E0"/>
<path d="M136.259 156.61H150.285V163.285H136.259V156.61Z" fill="#E0E0E0"/>
<path d="M136.259 169.511H150.285V176.186H136.259V169.511Z" fill="#E0E0E0"/>
<path d="M71.4912 96.7592H77.0236V105.454H71.4912V96.7592Z" fill="#E0E0E0"/>
<path d="M71.4912 111.007H77.0236V119.701H71.4912V111.007Z" fill="#E0E0E0"/>
<path d="M71.4912 124.862H77.0236V133.556H71.4912V124.862Z" fill="#E0E0E0"/>
<path d="M71.4912 139.502H77.0236V148.196H71.4912V139.502Z" fill="#E0E0E0"/>
<path d="M71.4912 153.749H77.0236V162.443H71.4912V153.749Z" fill="#E0E0E0"/>
<path d="M71.4353 88.0089H129.776V177.083H71.4353V88.0089Z" fill="#E6E6E6"/>
<path d="M81.3265 88.0089H129.776V177.083H81.3265V88.0089Z" fill="#F0F0F0"/>
<path d="M86.0206 96.7592H125.418V105.454H86.0206V96.7592Z" fill="#EBEBEB"/>
<path d="M86.0206 111.007H125.418V119.701H86.0206V111.007Z" fill="#EBEBEB"/>
<path d="M86.0206 125.254H125.418V133.948H86.0206V125.254Z" fill="#EBEBEB"/>
<path d="M86.0206 139.502H125.418V148.196H86.0206V139.502Z" fill="#EBEBEB"/>
<path d="M86.0206 153.749H125.418V162.443H86.0206V153.749Z" fill="#EBEBEB"/>
<path d="M86.0206 96.7592H123.965V105.454H86.0206V96.7592Z" fill="#F5F5F5"/>
<path d="M86.0206 111.007H123.965V119.701H86.0206V111.007Z" fill="#F5F5F5"/>
<path d="M86.0206 125.254H123.965V133.948H86.0206V125.254Z" fill="#F5F5F5"/>
<path d="M86.0206 139.502H123.965V148.196H86.0206V139.502Z" fill="#F5F5F5"/>
<path d="M86.0206 153.749H123.965V162.443H86.0206V153.749Z" fill="#F5F5F5"/>
<path d="M136.706 208.944C76.8626 208.944 28.35 206.106 28.35 202.605C28.35 199.105 76.8626 196.267 136.706 196.267C196.549 196.267 245.062 199.105 245.062 202.605C245.062 206.106 196.549 208.944 136.706 208.944Z" fill="#F5F5F5"/>
<path d="M65.2797 68.3468L129.761 69.4224L128.994 116.143L64.5124 115.067L65.2797 68.3468Z" fill="#C32328"/>
<path opacity="0.3" d="M90.8723 68.7852L129.874 69.4357L129.107 116.156L90.105 115.505L90.8723 68.7852Z" fill="white"/>
<path opacity="0.3" d="M85.3692 72.6053L96.6004 72.7919L96.5487 75.9328L85.3174 75.7462L85.3692 72.6053Z" fill="white"/>
<path opacity="0.3" d="M84.643 108.281L95.8742 108.468L95.8224 111.609L84.5912 111.422L84.643 108.281Z" fill="white"/>
<path d="M77.1912 98.2738C73.5494 98.2738 70.5971 94.9337 70.5971 90.8135C70.5971 86.6933 73.5494 83.3532 77.1912 83.3532C80.833 83.3532 83.7853 86.6933 83.7853 90.8135C83.7853 94.9337 80.833 98.2738 77.1912 98.2738Z" stroke="white" stroke-miterlimit="10"/>
<path d="M76.9118 84.4189V85.7091" stroke="white" stroke-miterlimit="10" stroke-linecap="round" stroke-linejoin="round"/>
<path d="M76.6324 95.974V97.208" stroke="white" stroke-miterlimit="10" stroke-linecap="round" stroke-linejoin="round"/>
<path d="M82.7236 90.533H81.4942" stroke="white" stroke-miterlimit="10" stroke-linecap="round" stroke-linejoin="round"/>
<path d="M72.6647 90.533H71.3795" stroke="white" stroke-miterlimit="10" stroke-linecap="round" stroke-linejoin="round"/>
<path d="M76.9118 90.533V86.6626" stroke="white" stroke-width="0.5" stroke-miterlimit="10" stroke-linecap="round" stroke-linejoin="round"/>
<path d="M76.6883 90.8135L73.95 93.5059" stroke="white" stroke-width="0.5" stroke-miterlimit="10" stroke-linecap="round" stroke-linejoin="round"/>
<path d="M76.2971 90.533C76.2971 90.8696 76.5765 91.15 76.9118 91.15C77.2471 91.15 77.5265 90.8696 77.5265 90.533C77.5265 90.1965 77.2471 89.916 76.9118 89.916C76.5765 89.916 76.2971 90.1965 76.2971 90.533Z" fill="white"/>
<path opacity="0.3" d="M77.1912 100.293C72.3766 100.293 68.4736 96.0489 68.4736 90.8135C68.4736 85.578 72.3766 81.3339 77.1912 81.3339C82.0058 81.3339 85.9088 85.578 85.9088 90.8135C85.9088 96.0489 82.0058 100.293 77.1912 100.293Z" fill="white"/>
<path d="M149.615 172.82C148.665 173.55 129.106 171.474 134.191 136.697C134.191 136.697 124.915 139.053 123.909 138.885C123.909 138.885 110.329 159.807 120.221 170.128C130.112 180.505 144.865 181.066 144.865 181.066L149.615 172.82Z" fill="#407BFF"/>
<path d="M149.615 172.82C148.665 173.55 129.106 171.474 134.191 136.697C134.191 136.697 124.915 139.053 123.909 138.885C123.909 138.885 110.329 159.807 120.221 170.128C130.112 180.505 144.865 181.066 144.865 181.066L149.615 172.82Z" fill="#911922"/>
<path d="M127.988 142.082C127.932 142.082 133.465 142.194 135.309 139.894C137.153 137.594 138.382 133.5 135.029 130.639C131.677 127.834 112.006 115.718 102.729 114.765C93.453 113.811 83.5618 119.813 83.5618 119.813L95.6883 128.844L121.841 135.183L127.988 142.082Z" fill="#263238"/>
<path d="M145.815 167.38L145.312 172.428L139.276 171.867L140.171 166.706L145.815 167.38Z" fill="#FFC3BD"/>
<path d="M146.988 172.035L138.271 171.923L137.656 176.354C137.656 176.354 145.815 176.466 149.168 176.018C152.521 175.569 152.018 173.83 152.018 173.83C152.018 173.83 148.05 173.886 146.988 172.035Z" fill="#263238"/>
<path d="M70.8234 184.721C69.5209 171.869 77.2519 160.553 88.091 159.446C98.9301 158.339 108.773 167.861 110.075 180.713C111.378 193.566 103.647 204.882 92.8075 205.988C81.9684 207.095 72.1258 197.573 70.8234 184.721Z" fill="#263238"/>
<path d="M104.182 111.231C104.182 111.231 103.288 132.097 115.359 132.658C127.429 133.275 140.394 131.929 140.394 131.929L136.594 169.399L147.938 170.072C147.938 170.072 156.041 138.268 157.326 130.302C158.612 122.337 157.494 116.672 149.112 113.138C140.674 109.604 104.182 111.231 104.182 111.231Z" fill="#280709"/>
<path d="M171.8 177.364L156.768 133.5L136.65 111.231C136.65 111.231 154.197 111.287 162.635 116.167C171.074 121.047 171.409 126.881 172.974 133.836C174.482 140.792 180.741 173.718 180.741 173.718L171.8 177.364Z" fill="#280709"/>
<path d="M135.029 77.4074L141.959 78.2488C141.959 78.2488 143.188 91.0379 144.306 93.562C144.306 93.562 165.653 96.5349 174.426 96.2544L178.897 99.2834L179.065 104.556L174.706 104.668L173.309 101.303C173.309 101.303 170.347 101.191 169.676 99.5078C169.676 99.5078 146.988 105.005 138.606 98.7225C138.55 98.7786 133.521 91.3744 135.029 77.4074Z" fill="#FFC3BD"/>
<path d="M115.135 43.0789C115.135 43.0789 112.956 45.8835 113.794 48.2955C114.632 50.7636 116.868 51.1001 116.868 51.1001C116.868 51.1001 117.259 54.9705 119.55 55.0827C121.841 55.251 121.059 46.5566 121.059 46.5566L115.135 43.0789Z" fill="#263238"/>
<path d="M132.738 111.343L134.247 86.27L143.691 79.9316C143.691 79.9316 140.618 68.9375 134.694 67.1425C128.771 65.2915 115.862 61.0285 108.038 63.16C100.215 65.2915 101.109 74.5467 102.45 81.4461L103.959 81.7826C103.959 81.7826 104.182 108.875 104.182 111.231L132.738 111.343Z" fill="#263238"/>
<path d="M115.694 64.6745C118.824 67.7035 125.138 69.4984 126.871 67.9839C128.659 66.4694 126.424 65.1232 124.747 63.4404C123.853 62.4869 123.909 60.748 124.076 59.4018C124.244 58.2239 124.579 57.3264 124.579 57.3264C130.391 56.9898 132.794 54.2974 133.018 49.4735C133.241 44.7056 131.062 39.0403 131.062 39.0403L126.982 35.5065C126.982 35.5065 121.394 36.3479 116.924 39.4329C114.241 41.2279 115.079 44.8178 116.141 47.4541C116.924 49.3052 117.818 50.7075 117.818 50.7075C118.488 57.3264 115.694 64.6745 115.694 64.6745Z" fill="#FFC3BD"/>
<path d="M129.832 50.7636C129.832 50.7636 127.597 50.8757 126.591 49.4734" stroke="#263238" stroke-miterlimit="10" stroke-linecap="round" stroke-linejoin="round"/>
<path d="M126.256 45.0982C126.256 45.547 126.535 45.8835 126.815 45.8274C127.094 45.8274 127.318 45.4909 127.318 45.0421C127.318 44.5934 127.038 44.2568 126.759 44.3129C126.479 44.3129 126.256 44.6495 126.256 45.0982Z" fill="#263238"/>
<path d="M131.341 45.2104C131.341 45.6592 131.621 45.9957 131.9 45.9396C132.179 45.9396 132.403 45.6031 132.403 45.1543C132.403 44.7056 132.124 44.369 131.844 44.4251C131.565 44.4251 131.341 44.8178 131.341 45.2104Z" fill="#263238"/>
<path d="M129.553 48.6882L129.777 45.2665L131.397 48.5199C131.453 48.5199 130.615 49.3052 129.553 48.6882Z" fill="#ED847E"/>
<path d="M126.535 42.4058C126.535 42.4058 125.026 41.9571 124.356 43.4155" stroke="#263238" stroke-miterlimit="10" stroke-linecap="round" stroke-linejoin="round"/>
<path d="M132.906 43.0228C132.906 43.0228 131.9 41.901 130.671 42.1814" stroke="#263238" stroke-miterlimit="10" stroke-linecap="round" stroke-linejoin="round"/>
<path d="M116.141 47.5102C122.512 47.7346 123.35 40.4426 123.35 40.4426C126.535 42.1254 131.118 39.0403 131.118 39.0403L127.038 35.5065C127.038 35.5065 121.45 36.3479 116.979 39.4329C114.241 41.284 115.024 44.8739 116.141 47.5102Z" fill="#263238"/>
<path d="M133.129 41.1718C133.129 41.1718 136.426 38.9842 134.974 37.3575C133.521 35.7869 124.579 38.8159 117.929 42.518C117.929 42.518 133.241 32.2531 137.376 35.5064C140.841 38.1989 133.185 41.901 133.409 41.901L133.129 41.1718Z" fill="#407BFF"/>
<path d="M114.465 40.4426C114.521 42.4058 115.135 43.8642 115.135 43.8642L130.168 36.5722C130.168 36.5722 129.441 35.6186 127.988 34.7772C127.206 34.3285 126.256 33.9358 125.138 33.7115C124.188 33.5432 123.127 33.431 121.897 33.5993C116.365 34.2163 114.465 38.4793 114.465 40.4426Z" fill="#C32328"/>
<path d="M149 107.529C150.006 108.539 162.635 105.902 164.815 107.08C165.765 107.585 166.156 109.324 167.106 111.231C168.391 113.811 170.682 116.728 176.606 116.896C186.944 117.233 185.715 106.688 186.497 103.266C186.497 103.266 196.276 101.471 196.779 99.7322C197.282 97.9933 196.668 97.769 196.668 97.769C196.668 97.769 184.597 100.013 182.25 96.9276C182.25 96.9276 181.803 96.4227 180.685 95.8618C179.735 95.4131 178.394 95.0204 176.438 94.9082C172.191 94.6839 166.994 95.8618 165.541 98.6103C162.579 104.107 149.95 102.873 148.776 104.332C147.659 105.846 147.994 106.463 149 107.529Z" fill="#C32328"/>
<path d="M181.021 114.709C181.021 114.709 198.009 138.268 184.038 174.559" stroke="#263238" stroke-miterlimit="10" stroke-linecap="round" stroke-linejoin="round"/>
<path d="M158.612 126.937C158.612 126.937 158.612 126.993 158.612 127.049C158.612 127.105 158.612 127.161 158.612 127.274V127.33C158.779 129.573 159.226 131.873 159.729 134.061C160.512 137.314 161.518 140.455 162.356 142.923C165.932 153.581 165.541 165.024 165.541 165.024C166.715 163.565 168.894 162.5 171.632 161.77C181.524 159.078 198.232 160.48 198.232 160.48C201.529 148.925 200.356 130.807 197.059 120.655C193.818 110.502 184.709 112.802 184.709 112.802C184.709 112.802 175.153 113.082 173.924 112.97C171.353 112.689 169.174 112.746 167.329 113.082C159.953 114.484 158.221 120.374 158.612 126.937Z" fill="#C32328"/>
<path d="M84.9588 171.082C101.724 186.283 134.079 187.853 158.165 186.17L171.632 161.826L177.109 151.954L159.562 128.227L158.612 126.993C158.612 126.993 158.612 127.049 158.612 127.105C158.612 127.161 158.612 127.217 158.612 127.33V127.386C158.835 131.649 160.4 165.585 147.994 173.942C147.938 173.942 147.938 173.998 147.882 173.998C146.262 175.064 144.362 175.681 142.238 175.737C119.438 176.41 120.109 146.569 125.865 140.175L86.3559 132.21C86.4677 132.21 78.6441 151.898 84.9588 171.082Z" fill="#C32328"/>
<path d="M128.938 133.724C128.938 133.724 132.626 136.809 130.726 140.96C128.826 145.111 110.385 137.09 103.121 135.575C95.8559 134.117 87.4177 132.658 83.8412 131.929C80.2647 131.2 80.5441 120.767 83.5059 119.869C86.4677 118.972 115.359 124.076 120.165 126.881C124.971 129.685 128.938 133.724 128.938 133.724Z" fill="#263238"/>
<path d="M119.662 50.0904C120.388 49.3051 120.444 48.1272 119.885 47.2297C118.991 45.8835 117.203 43.752 115.471 45.3226C113.068 47.5663 117.203 51.661 118.879 50.6514C119.159 50.4831 119.438 50.2587 119.662 50.0904Z" fill="#FFC3BD"/>
<path d="M133.129 41.1718C133.129 41.1718 136.426 38.9842 134.974 37.3575C134.303 36.6283 132.403 36.7966 129.776 37.5258C128.324 37.9184 126.591 38.4793 124.859 39.2646C122.568 40.2743 120.109 41.5644 117.929 42.518C117.929 42.518 133.241 32.2531 137.376 35.5064C140.841 38.1989 133.688 41.6766 133.409 41.901L133.297 41.4522L133.129 41.1718Z" fill="#911922"/>
<path d="M131.565 40.2182C131.565 40.2182 134.918 40.7791 132.626 44.4251L131.565 40.2182Z" fill="#263238"/>
<path d="M128.379 38.0306C128.379 38.0306 133.465 36.2357 134.862 37.2453C136.259 38.255 134.806 40.1621 133.185 41.1718L131.9 41.3401L131.118 39.0403L129.162 38.8159L128.379 38.0306Z" fill="#263238"/>
<path opacity="0.3" d="M121.45 35.2821L122.679 37.077L127.932 34.7772C127.15 34.3285 126.2 33.9359 125.082 33.7115L121.45 35.2821Z" fill="white"/>
<path opacity="0.1" d="M122.679 56.8215C122.679 56.8215 123.182 58.2799 124.132 59.4018C124.3 58.2238 124.635 57.3264 124.635 57.3264C124.635 57.3264 123.35 57.2142 122.679 56.8215Z" fill="black"/>
<path d="M172.75 106.127C172.974 109.997 174.65 113.194 176.718 113.98C177.053 114.092 177.444 114.148 177.835 114.148C180.35 113.98 182.194 110.165 181.971 105.622C181.691 101.078 179.456 97.4885 176.885 97.6006C175.879 97.6567 174.929 98.3298 174.203 99.3956C173.197 100.966 172.582 103.434 172.75 106.127Z" fill="#F5F5F5"/>
<path d="M172.75 106.127C172.974 109.997 174.65 113.194 176.718 113.98C179.065 113.867 180.741 110.334 180.518 106.127C180.294 101.92 178.171 98.6103 175.824 98.7224C175.209 98.7785 174.706 99.0029 174.203 99.4516C173.197 100.966 172.582 103.434 172.75 106.127Z" fill="white"/>
<path d="M82.1647 161.209C86.4677 158.18 103.177 155.151 103.177 155.151C113.347 155.151 122.232 164.294 123.462 176.523C124.468 186.451 120.109 195.426 113.068 199.52C113.068 199.52 112.509 199.745 111.503 200.137C107.759 201.596 98.3147 205.186 92.7824 205.971" fill="#263238"/>
<path opacity="0.3" d="M70.8234 184.721C69.5209 171.869 77.2519 160.553 88.091 159.446C98.9301 158.339 108.773 167.861 110.075 180.713C111.378 193.566 103.647 204.882 92.8075 205.988C81.9684 207.095 72.1258 197.573 70.8234 184.721Z" fill="black"/>
<path d="M157.681 184.008C156.379 171.156 164.11 159.84 174.949 158.733C185.788 157.627 195.631 167.148 196.933 180.001C198.236 192.853 190.505 204.169 179.666 205.276C168.826 206.382 158.984 196.861 157.681 184.008Z" fill="#263238"/>
<path d="M165.262 163.004L175.265 205.13C176.718 205.354 178.171 205.41 179.679 205.242C179.735 205.242 179.735 205.242 179.791 205.242C181.691 204.737 180.853 205.298 182.753 204.625C187.615 202.998 194.768 200.137 194.768 200.137C202.312 196.491 206.559 187.517 205.497 177.308C204.268 164.968 195.382 155.712 184.988 156.441C184.988 156.441 180.071 157.339 174.985 158.685C172.806 159.246 170.515 159.919 168.671 160.592C167.441 161.321 166.324 162.107 165.262 163.004Z" fill="#263238"/>
<path opacity="0.3" d="M157.718 183.983C158.835 195.033 166.324 203.671 175.265 205.13C176.718 205.354 178.171 205.41 179.679 205.242C179.735 205.242 179.735 205.242 179.791 205.242C181.859 205.017 183.871 204.4 185.659 203.503C193.203 199.689 198.009 190.321 196.947 180C195.662 167.155 185.826 157.676 174.985 158.741H174.929C172.694 158.966 170.571 159.639 168.671 160.648C167.441 161.322 166.324 162.107 165.262 163.004C159.953 167.66 156.824 175.513 157.718 183.983Z" fill="black"/>
<path d="M160.456 169.231C160.679 168.726 161.238 168.165 161.574 167.772C164.088 164.351 169.788 163.06 173.532 163.397C176.382 163.621 179.121 164.687 181.524 166.258C184.262 168.053 186.218 170.745 188.9 172.596C194.041 176.13 201.809 176.074 206.95 172.372C207.229 172.147 207.509 171.923 207.788 171.699C208.347 171.194 208.626 170.465 208.794 169.679C209.018 168.726 208.906 167.772 208.571 166.875C207.453 163.733 203.709 160.929 201.362 159.246C196.612 155.824 190.968 153.917 185.156 153.525C168.559 152.403 161.462 166.65 160.456 169.231Z" fill="#C32328"/>
<path opacity="0.3" d="M161.574 169.679C165.15 164.519 169.733 163.06 173.477 163.341C176.327 163.565 179.065 164.631 181.468 166.202C184.206 167.996 186.162 170.689 188.844 172.54C193.986 176.074 201.753 176.018 206.894 172.316C207.174 172.091 207.453 171.867 207.733 171.643C208.291 171.138 208.571 170.408 208.738 169.623C208.962 168.67 208.85 167.716 208.515 166.819C206.783 168.838 201.753 173.662 194.936 171.306C186.441 168.389 184.374 159.583 175.265 159.695C168.112 159.807 163.697 165.472 161.574 169.679Z" fill="black"/>
<g opacity="0.3">
<path opacity="0.3" d="M198.959 157.732C196.556 155.993 193.818 154.815 190.912 154.03C188.006 153.3 185.044 153.076 182.082 153.3C180.629 153.469 179.121 153.693 177.668 154.086C176.215 154.478 174.818 154.927 173.476 155.544L172.471 155.993L171.465 156.498C170.794 156.834 170.179 157.227 169.509 157.563C168.894 157.956 168.279 158.349 167.665 158.741C167.05 159.19 166.491 159.583 165.876 160.031C168.335 158.405 170.906 157.002 173.644 155.937C176.382 154.871 179.232 154.142 182.138 153.917C185.044 153.637 188.006 153.861 190.856 154.478C192.309 154.815 193.706 155.207 195.047 155.768C196.388 156.329 197.674 156.946 198.959 157.732Z" fill="black"/>
</g>
<g opacity="0.3">
<path opacity="0.3" d="M180.853 153.749C181.635 151.449 181.915 148.981 182.082 146.569C182.25 144.157 182.306 141.689 182.25 139.277C182.194 136.865 182.026 134.397 181.803 131.985L181.412 128.339C181.244 127.161 181.076 125.927 180.853 124.749L181.356 132.041L181.579 135.687C181.635 136.921 181.691 138.099 181.691 139.333C181.803 141.745 181.747 144.157 181.635 146.625C181.579 147.859 181.524 149.037 181.356 150.271C181.3 151.337 181.132 152.571 180.853 153.749Z" fill="black"/>
</g>
<path opacity="0.3" d="M148.05 173.886C159.729 166.37 160.176 146.906 159.785 134.117C159.729 131.929 159.618 129.91 159.562 128.171C159.45 125.815 159.45 124.02 159.562 123.011C160.791 114.204 167.441 113.138 167.441 113.138C160.009 114.484 158.221 120.374 158.668 126.937C158.668 126.937 158.668 126.993 158.668 127.049C158.668 127.105 158.668 127.161 158.668 127.274V127.33C158.891 131.593 160.456 165.585 148.05 173.886Z" fill="black"/>
<path opacity="0.2" d="M149 107.529C150.006 108.539 162.635 105.902 164.815 107.08C165.765 107.585 166.156 109.324 167.106 111.231C169.732 115.438 173.477 116.111 173.7 116.111C169.285 112.746 168.056 104.668 170.235 99.5078C172.415 94.4595 180.294 95.6935 180.741 95.8618C179.791 95.4131 178.45 95.0204 176.494 94.9082C172.247 94.6839 167.05 95.8618 165.597 98.6103C162.635 104.107 150.006 102.873 148.832 104.332C147.659 105.846 147.994 106.463 149 107.529Z" fill="black"/>
<path d="M158.891 102.593C158.891 102.593 160.065 104.5 159.785 107.249L149.056 108.483C149.056 108.483 147.324 106.8 147.715 103.827C147.715 103.827 158.332 102.705 158.891 102.593Z" fill="#263238"/>
<path d="M191.415 102.2C191.415 102.2 192.476 99.9004 191.191 98.4981C194.041 98.2177 195.829 97.9372 197.674 97.6567C197.953 98.4981 198.065 99.2834 197.115 100.574C196.165 101.864 191.415 102.2 191.415 102.2Z" fill="#263238"/>
<path d="M197.394 116.448C199.238 119.477 200.859 124.357 200.971 132.097" stroke="#5B2314" stroke-miterlimit="10" stroke-linecap="round" stroke-linejoin="round"/>
<path d="M191.247 111.455C191.247 111.455 192.924 111.68 194.824 113.419" stroke="#5B2314" stroke-miterlimit="10" stroke-linecap="round" stroke-linejoin="round"/>
<path d="M107.926 82.2314L114.968 83.0728C114.968 83.0728 116.197 96.0862 117.315 98.6104C117.315 98.6104 138.997 101.583 147.882 101.359L152.409 104.444L152.576 109.773L148.162 109.885L146.709 106.519C146.709 106.519 143.747 106.407 143.021 104.724C143.021 104.724 119.997 110.334 111.503 103.939C111.559 103.939 106.418 96.3667 107.926 82.2314Z" fill="#FFC3BD"/>
<path opacity="0.2" d="M165.374 182.3C165.597 189.368 170.179 194.921 175.656 194.809C176.382 194.809 177.109 194.64 177.835 194.416C182.25 193.014 185.379 187.797 185.212 181.739C185.044 175.849 181.803 170.969 177.556 169.623C176.718 169.343 175.824 169.23 174.929 169.23C169.453 169.399 165.15 175.288 165.374 182.3Z" fill="#FAFAFA"/>
<path d="M170.403 182.3C170.571 188.302 173.756 193.294 177.835 194.416C182.25 193.014 185.379 187.797 185.212 181.739C185.044 175.849 181.803 170.969 177.556 169.623C173.309 170.801 170.235 176.074 170.403 182.3Z" fill="#263238"/>
<path opacity="0.2" d="M79.2588 182.861C79.4824 189.929 84.0647 195.482 89.5412 195.37C90.2677 195.37 90.9941 195.201 91.7206 194.977C96.1353 193.575 99.2647 188.358 99.0971 182.3C98.9294 176.41 95.6883 171.53 91.4412 170.184C90.603 169.904 89.7088 169.791 88.8147 169.791C83.3382 169.96 79.0353 175.793 79.2588 182.861Z" fill="#FAFAFA"/>
<path d="M84.2883 182.861C84.4559 188.863 87.6412 193.855 91.7206 194.977C96.1353 193.575 99.2648 188.358 99.0971 182.3C98.9295 176.41 95.6883 171.53 91.4412 170.184C87.1941 171.306 84.1206 176.635 84.2883 182.861Z" fill="#263238"/>
<path d="M70.5971 164.294C70.4854 171.25 81.0471 175.849 98.65 178.71C104.406 179.664 109.212 179.495 113.012 178.878C120.835 177.588 124.635 174.279 124.635 174.279C124.635 174.279 122.624 150.271 102.953 147.242C89.5412 145.167 79.4265 150.608 74.3412 156.441C71.9383 159.19 70.653 162.051 70.5971 164.294Z" fill="#C32328"/>
<path opacity="0.3" d="M70.5971 164.294C70.4854 171.25 81.0471 175.849 98.65 178.71C104.406 179.664 109.212 179.495 113.012 178.878C112.174 172.372 108.374 155.264 91.8883 153.525C84.4 152.739 78.6442 154.254 74.3412 156.498C71.9383 159.19 70.653 162.051 70.5971 164.294Z" fill="black"/>
<g opacity="0.3">
<path opacity="0.3" d="M123.518 174.335C123.182 171.082 122.344 167.884 121.226 164.799C120.053 161.714 118.488 158.797 116.532 156.161C115.526 154.871 114.409 153.637 113.179 152.515C111.95 151.393 110.609 150.384 109.156 149.598C106.306 147.915 103.065 147.018 99.8235 146.681C101.444 147.018 103.009 147.298 104.574 147.915C105.356 148.14 106.082 148.532 106.809 148.813C107.535 149.206 108.262 149.542 108.932 149.991C109.659 150.383 110.274 150.888 110.944 151.337C111.559 151.842 112.229 152.347 112.788 152.908C113.962 153.973 115.079 155.207 116.029 156.498C118.041 159.078 119.55 161.939 120.779 164.968C121.394 166.482 121.953 167.996 122.4 169.567C122.847 171.138 123.238 172.764 123.518 174.335Z" fill="black"/>
</g>
<path d="M149.95 166.426L148.776 170.408L136.594 169.399L136.426 163.846L149.95 166.426Z" fill="#C32328"/>
<path d="M77.3588 139.446L50.5353 138.324" stroke="#5B2314" stroke-miterlimit="10" stroke-linecap="round" stroke-linejoin="round"/>
<path d="M41.7059 133.444L37.7382 133.275" stroke="#5B2314" stroke-miterlimit="10" stroke-linecap="round" stroke-linejoin="round"/>
<path d="M64.5059 134.341L44.7794 133.556" stroke="#5B2314" stroke-miterlimit="10" stroke-linecap="round" stroke-linejoin="round"/>
<path d="M50.7029 148.308L34.1059 147.635" stroke="#5B2314" stroke-miterlimit="10" stroke-linecap="round" stroke-linejoin="round"/>
<path d="M60.9294 148.701L53.7206 148.42" stroke="#5B2314" stroke-miterlimit="10" stroke-linecap="round" stroke-linejoin="round"/>
</svg>
